<?xml version="1.0" encoding="utf-8" standalone="no"?>
<!DOCTYPE svg PUBLIC "-//W3C//DTD SVG 1.1//EN"
  "http://www.w3.org/Graphics/SVG/1.1/DTD/svg11.dtd">
<svg xmlns:xlink="http://www.w3.org/1999/xlink" width="267.184535pt" height="265.95534pt" viewBox="0 0 267.184535 265.95534" xmlns="http://www.w3.org/2000/svg" version="1.1">
 <metadata>
  <rdf:RDF xmlns:dc="http://purl.org/dc/elements/1.1/" xmlns:cc="http://creativecommons.org/ns#" xmlns:rdf="http://www.w3.org/1999/02/22-rdf-syntax-ns#">
   <cc:Work>
    <dc:type rdf:resource="http://purl.org/dc/dcmitype/StillImage"/>
    <dc:date>2025-08-21T23:34:19.926651</dc:date>
    <dc:format>image/svg+xml</dc:format>
    <dc:creator>
     <cc:Agent>
      <dc:title>Matplotlib v3.10.3, https://matplotlib.org/</dc:title>
     </cc:Agent>
    </dc:creator>
   </cc:Work>
  </rdf:RDF>
 </metadata>
 <defs>
  <style type="text/css">*{stroke-linejoin: round; stroke-linecap: butt}</style>
 </defs>
 <g id="figure_1">
  <g id="patch_1">
   <path d="M 0 265.95534 
L 267.184535 265.95534 
L 267.184535 0 
L 0 0 
z
" style="fill: #ffffff"/>
  </g>
  <g id="axes_1">
   <g id="patch_2">
    <path d="M 36.74 258.75534 
L 259.984535 258.75534 
L 259.984535 8.115533 
L 36.74 8.115533 
z
" style="fill: #ffffff"/>
   </g>
   <g id="patch_3">
    <path d="M 143.021489 258.75534 
L 249.837056 258.75534 
L 249.837056 8.115533 
L 143.021489 8.115533 
z
" clip-path="url(#pd3a1c6c13f)" style="fill: #b5d1ae; opacity: 0.35"/>
   </g>
   <g id="patch_4">
    <path d="M 46.887479 77556.84788 
L 132.339932 77556.84788 
L 132.339932 19.508252 
L 46.887479 19.508252 
z
" clip-path="url(#pd3a1c6c13f)" style="fill: #b8cdb2"/>
   </g>
   <g id="patch_5">
    <path d="M 153.703046 77556.84788 
L 239.155499 77556.84788 
L 239.155499 247.362621 
L 153.703046 247.362621 
z
" clip-path="url(#pd3a1c6c13f)" style="fill: #234556"/>
   </g>
   <g id="matplotlib.axis_1"/>
   <g id="matplotlib.axis_2">
    <g id="ytick_1">
     <g id="line2d_1">
      <defs>
       <path id="mf3111de1f1" d="M 0 0 
L -3.5 0 
" style="stroke: #3f3f3f; stroke-width: 0.8"/>
      </defs>
      <g>
       <use xlink:href="#mf3111de1f1" x="36.74" y="243.832033" style="fill: #3f3f3f; stroke: #3f3f3f; stroke-width: 0.8"/>
      </g>
     </g>
     <g id="text_1">
      <!-- $\mathdefault{10^{2}}$ -->
      <g style="fill: #3f3f3f" transform="translate(7.2 248.98797) scale(0.14 -0.14)">
       <defs>
        <path id="Lato-Regular-31" d="M 800 435 
L 1782 435 
L 1782 3562 
Q 1782 3696 1792 3846 
L 976 3146 
Q 934 3110 892 3102 
Q 851 3094 816 3100 
Q 781 3107 750 3126 
Q 720 3146 704 3168 
L 525 3414 
L 1891 4595 
L 2355 4595 
L 2355 435 
L 3258 435 
L 3258 0 
L 800 0 
L 800 435 
z
" transform="scale(0.015625)"/>
        <path id="Lato-Regular-30" d="M 3520 2291 
Q 3520 1690 3390 1250 
Q 3261 810 3037 522 
Q 2813 234 2507 93 
Q 2202 -48 1853 -48 
Q 1501 -48 1198 93 
Q 896 234 672 522 
Q 448 810 320 1250 
Q 192 1690 192 2291 
Q 192 2893 320 3334 
Q 448 3776 672 4065 
Q 896 4355 1198 4496 
Q 1501 4637 1853 4637 
Q 2202 4637 2507 4496 
Q 2813 4355 3037 4065 
Q 3261 3776 3390 3334 
Q 3520 2893 3520 2291 
z
M 2928 2291 
Q 2928 2816 2840 3173 
Q 2752 3530 2603 3747 
Q 2454 3965 2259 4059 
Q 2064 4154 1853 4154 
Q 1642 4154 1446 4059 
Q 1251 3965 1104 3747 
Q 957 3530 869 3173 
Q 781 2816 781 2291 
Q 781 1766 869 1411 
Q 957 1056 1104 838 
Q 1251 621 1446 526 
Q 1642 432 1853 432 
Q 2064 432 2259 526 
Q 2454 621 2603 838 
Q 2752 1056 2840 1411 
Q 2928 1766 2928 2291 
z
" transform="scale(0.015625)"/>
        <path id="Lato-Regular-32" d="M 1891 4637 
Q 2182 4637 2435 4550 
Q 2688 4464 2873 4299 
Q 3059 4134 3164 3897 
Q 3270 3661 3270 3360 
Q 3270 3104 3193 2885 
Q 3117 2666 2985 2467 
Q 2854 2269 2683 2080 
Q 2512 1891 2320 1699 
L 1110 464 
Q 1238 499 1369 520 
Q 1501 541 1622 541 
L 3158 541 
Q 3251 541 3305 486 
Q 3360 432 3360 346 
L 3360 0 
L 301 0 
L 301 195 
Q 301 256 326 320 
Q 352 384 406 438 
L 1875 1914 
Q 2058 2099 2208 2270 
Q 2358 2442 2464 2614 
Q 2570 2787 2627 2964 
Q 2685 3142 2685 3344 
Q 2685 3546 2621 3698 
Q 2557 3850 2446 3949 
Q 2336 4048 2185 4097 
Q 2035 4147 1862 4147 
Q 1686 4147 1539 4096 
Q 1392 4045 1278 3953 
Q 1165 3862 1088 3737 
Q 1011 3613 979 3462 
Q 941 3350 875 3313 
Q 810 3277 691 3293 
L 394 3344 
Q 438 3658 568 3899 
Q 698 4141 894 4304 
Q 1091 4467 1344 4552 
Q 1597 4637 1891 4637 
z
" transform="scale(0.015625)"/>
       </defs>
       <use xlink:href="#Lato-Regular-31" transform="translate(0 0.823438)"/>
       <use xlink:href="#Lato-Regular-30" transform="translate(58 0.823438)"/>
       <use xlink:href="#Lato-Regular-32" transform="translate(116.886484 36.282813) scale(0.7)"/>
      </g>
     </g>
    </g>
    <g id="ytick_2">
     <g id="line2d_2">
      <g>
       <use xlink:href="#mf3111de1f1" x="36.74" y="166.673334" style="fill: #3f3f3f; stroke: #3f3f3f; stroke-width: 0.8"/>
      </g>
     </g>
     <g id="text_2">
      <!-- $\mathdefault{10^{3}}$ -->
      <g style="fill: #3f3f3f" transform="translate(7.2 171.829272) scale(0.14 -0.14)">
       <defs>
        <path id="Lato-Regular-33" d="M 1914 4637 
Q 2205 4637 2451 4553 
Q 2698 4470 2875 4316 
Q 3053 4163 3152 3945 
Q 3251 3728 3251 3462 
Q 3251 3245 3195 3073 
Q 3139 2902 3035 2772 
Q 2931 2643 2784 2553 
Q 2637 2464 2454 2410 
Q 2902 2291 3128 2012 
Q 3354 1734 3354 1315 
Q 3354 998 3234 745 
Q 3114 493 2906 315 
Q 2698 138 2421 43 
Q 2144 -51 1827 -51 
Q 1462 -51 1203 40 
Q 944 131 765 291 
Q 586 451 470 670 
Q 355 890 275 1146 
L 522 1248 
Q 618 1290 709 1270 
Q 800 1251 842 1165 
Q 883 1075 945 950 
Q 1008 826 1117 710 
Q 1226 595 1394 515 
Q 1562 435 1821 435 
Q 2061 435 2241 513 
Q 2422 592 2542 717 
Q 2662 842 2723 995 
Q 2784 1149 2784 1299 
Q 2784 1485 2736 1638 
Q 2688 1792 2557 1904 
Q 2426 2016 2197 2080 
Q 1968 2144 1610 2144 
L 1610 2557 
Q 1904 2560 2110 2621 
Q 2317 2682 2446 2787 
Q 2576 2893 2635 3040 
Q 2694 3187 2694 3366 
Q 2694 3565 2632 3712 
Q 2570 3859 2461 3955 
Q 2352 4051 2203 4099 
Q 2054 4147 1882 4147 
Q 1709 4147 1560 4096 
Q 1411 4045 1297 3953 
Q 1184 3862 1107 3737 
Q 1030 3613 998 3462 
Q 957 3350 894 3313 
Q 832 3277 714 3293 
L 416 3344 
Q 461 3658 589 3899 
Q 717 4141 913 4304 
Q 1110 4467 1364 4552 
Q 1619 4637 1914 4637 
z
" transform="scale(0.015625)"/>
       </defs>
       <use xlink:href="#Lato-Regular-31" transform="translate(0 0.823438)"/>
       <use xlink:href="#Lato-Regular-30" transform="translate(58 0.823438)"/>
       <use xlink:href="#Lato-Regular-33" transform="translate(116.886484 36.282813) scale(0.7)"/>
      </g>
     </g>
    </g>
    <g id="ytick_3">
     <g id="line2d_3">
      <g>
       <use xlink:href="#mf3111de1f1" x="36.74" y="89.514636" style="fill: #3f3f3f; stroke: #3f3f3f; stroke-width: 0.8"/>
      </g>
     </g>
     <g id="text_3">
      <!-- $\mathdefault{10^{4}}$ -->
      <g style="fill: #3f3f3f" transform="translate(7.2 94.670573) scale(0.14 -0.14)">
       <defs>
        <path id="Lato-Regular-34" d="M 2835 1654 
L 3530 1654 
L 3530 1328 
Q 3530 1277 3499 1241 
Q 3469 1206 3405 1206 
L 2835 1206 
L 2835 0 
L 2336 0 
L 2336 1206 
L 301 1206 
Q 237 1206 190 1243 
Q 144 1280 131 1334 
L 74 1626 
L 2304 4586 
L 2835 4586 
L 2835 1654 
z
M 2336 3546 
Q 2336 3629 2341 3726 
Q 2346 3824 2362 3926 
L 691 1654 
L 2336 1654 
L 2336 3546 
z
" transform="scale(0.015625)"/>
       </defs>
       <use xlink:href="#Lato-Regular-31" transform="translate(0 0.38125)"/>
       <use xlink:href="#Lato-Regular-30" transform="translate(58 0.38125)"/>
       <use xlink:href="#Lato-Regular-34" transform="translate(116.886484 35.840625) scale(0.7)"/>
      </g>
     </g>
    </g>
    <g id="ytick_4">
     <g id="line2d_4">
      <g>
       <use xlink:href="#mf3111de1f1" x="36.74" y="12.355937" style="fill: #3f3f3f; stroke: #3f3f3f; stroke-width: 0.8"/>
      </g>
     </g>
     <g id="text_4">
      <!-- $\mathdefault{10^{5}}$ -->
      <g style="fill: #3f3f3f" transform="translate(7.2 17.511875) scale(0.14 -0.14)">
       <defs>
        <path id="Lato-Regular-35" d="M 3142 4336 
Q 3142 4214 3067 4136 
Q 2992 4058 2810 4058 
L 1370 4058 
L 1158 2854 
Q 1341 2896 1502 2913 
Q 1664 2931 1818 2931 
Q 2176 2931 2451 2825 
Q 2726 2720 2910 2534 
Q 3094 2349 3188 2096 
Q 3283 1843 3283 1546 
Q 3283 1181 3156 886 
Q 3030 592 2808 382 
Q 2586 173 2285 61 
Q 1984 -51 1635 -51 
Q 1434 -51 1248 -11 
Q 1062 29 900 96 
Q 739 163 601 249 
Q 464 336 358 432 
L 534 675 
Q 592 758 685 758 
Q 749 758 829 708 
Q 909 659 1024 598 
Q 1139 538 1294 488 
Q 1450 438 1664 438 
Q 1904 438 2096 515 
Q 2288 592 2425 734 
Q 2563 877 2636 1075 
Q 2710 1274 2710 1520 
Q 2710 1734 2648 1907 
Q 2586 2080 2459 2201 
Q 2333 2323 2144 2390 
Q 1955 2458 1702 2458 
Q 1530 2458 1342 2429 
Q 1155 2400 960 2336 
L 602 2442 
L 970 4586 
L 3142 4586 
L 3142 4336 
z
" transform="scale(0.015625)"/>
       </defs>
       <use xlink:href="#Lato-Regular-31" transform="translate(0 0.38125)"/>
       <use xlink:href="#Lato-Regular-30" transform="translate(58 0.38125)"/>
       <use xlink:href="#Lato-Regular-35" transform="translate(116.886484 35.840625) scale(0.7)"/>
      </g>
     </g>
    </g>
    <g id="ytick_5">
     <g id="line2d_5">
      <defs>
       <path id="m9116b72d75" d="M 0 0 
L -2 0 
" style="stroke: #3f3f3f; stroke-width: 0.6"/>
      </defs>
      <g>
       <use xlink:href="#m9116b72d75" x="36.74" y="255.784066" style="fill: #3f3f3f; stroke: #3f3f3f; stroke-width: 0.6"/>
      </g>
     </g>
    </g>
    <g id="ytick_6">
     <g id="line2d_6">
      <g>
       <use xlink:href="#m9116b72d75" x="36.74" y="251.309483" style="fill: #3f3f3f; stroke: #3f3f3f; stroke-width: 0.6"/>
      </g>
     </g>
    </g>
    <g id="ytick_7">
     <g id="line2d_7">
      <g>
       <use xlink:href="#m9116b72d75" x="36.74" y="247.362621" style="fill: #3f3f3f; stroke: #3f3f3f; stroke-width: 0.6"/>
      </g>
     </g>
    </g>
    <g id="ytick_8">
     <g id="line2d_8">
      <g>
       <use xlink:href="#m9116b72d75" x="36.74" y="220.60495" style="fill: #3f3f3f; stroke: #3f3f3f; stroke-width: 0.6"/>
      </g>
     </g>
    </g>
    <g id="ytick_9">
     <g id="line2d_9">
      <g>
       <use xlink:href="#m9116b72d75" x="36.74" y="207.017978" style="fill: #3f3f3f; stroke: #3f3f3f; stroke-width: 0.6"/>
      </g>
     </g>
    </g>
    <g id="ytick_10">
     <g id="line2d_10">
      <g>
       <use xlink:href="#m9116b72d75" x="36.74" y="197.377868" style="fill: #3f3f3f; stroke: #3f3f3f; stroke-width: 0.6"/>
      </g>
     </g>
    </g>
    <g id="ytick_11">
     <g id="line2d_11">
      <g>
       <use xlink:href="#m9116b72d75" x="36.74" y="189.900417" style="fill: #3f3f3f; stroke: #3f3f3f; stroke-width: 0.6"/>
      </g>
     </g>
    </g>
    <g id="ytick_12">
     <g id="line2d_12">
      <g>
       <use xlink:href="#m9116b72d75" x="36.74" y="183.790895" style="fill: #3f3f3f; stroke: #3f3f3f; stroke-width: 0.6"/>
      </g>
     </g>
    </g>
    <g id="ytick_13">
     <g id="line2d_13">
      <g>
       <use xlink:href="#m9116b72d75" x="36.74" y="178.625368" style="fill: #3f3f3f; stroke: #3f3f3f; stroke-width: 0.6"/>
      </g>
     </g>
    </g>
    <g id="ytick_14">
     <g id="line2d_14">
      <g>
       <use xlink:href="#m9116b72d75" x="36.74" y="174.150785" style="fill: #3f3f3f; stroke: #3f3f3f; stroke-width: 0.6"/>
      </g>
     </g>
    </g>
    <g id="ytick_15">
     <g id="line2d_15">
      <g>
       <use xlink:href="#m9116b72d75" x="36.74" y="170.203923" style="fill: #3f3f3f; stroke: #3f3f3f; stroke-width: 0.6"/>
      </g>
     </g>
    </g>
    <g id="ytick_16">
     <g id="line2d_16">
      <g>
       <use xlink:href="#m9116b72d75" x="36.74" y="143.446252" style="fill: #3f3f3f; stroke: #3f3f3f; stroke-width: 0.6"/>
      </g>
     </g>
    </g>
    <g id="ytick_17">
     <g id="line2d_17">
      <g>
       <use xlink:href="#m9116b72d75" x="36.74" y="129.859279" style="fill: #3f3f3f; stroke: #3f3f3f; stroke-width: 0.6"/>
      </g>
     </g>
    </g>
    <g id="ytick_18">
     <g id="line2d_18">
      <g>
       <use xlink:href="#m9116b72d75" x="36.74" y="120.219169" style="fill: #3f3f3f; stroke: #3f3f3f; stroke-width: 0.6"/>
      </g>
     </g>
    </g>
    <g id="ytick_19">
     <g id="line2d_19">
      <g>
       <use xlink:href="#m9116b72d75" x="36.74" y="112.741719" style="fill: #3f3f3f; stroke: #3f3f3f; stroke-width: 0.6"/>
      </g>
     </g>
    </g>
    <g id="ytick_20">
     <g id="line2d_20">
      <g>
       <use xlink:href="#m9116b72d75" x="36.74" y="106.632197" style="fill: #3f3f3f; stroke: #3f3f3f; stroke-width: 0.6"/>
      </g>
     </g>
    </g>
    <g id="ytick_21">
     <g id="line2d_21">
      <g>
       <use xlink:href="#m9116b72d75" x="36.74" y="101.46667" style="fill: #3f3f3f; stroke: #3f3f3f; stroke-width: 0.6"/>
      </g>
     </g>
    </g>
    <g id="ytick_22">
     <g id="line2d_22">
      <g>
       <use xlink:href="#m9116b72d75" x="36.74" y="96.992086" style="fill: #3f3f3f; stroke: #3f3f3f; stroke-width: 0.6"/>
      </g>
     </g>
    </g>
    <g id="ytick_23">
     <g id="line2d_23">
      <g>
       <use xlink:href="#m9116b72d75" x="36.74" y="93.045224" style="fill: #3f3f3f; stroke: #3f3f3f; stroke-width: 0.6"/>
      </g>
     </g>
    </g>
    <g id="ytick_24">
     <g id="line2d_24">
      <g>
       <use xlink:href="#m9116b72d75" x="36.74" y="66.287553" style="fill: #3f3f3f; stroke: #3f3f3f; stroke-width: 0.6"/>
      </g>
     </g>
    </g>
    <g id="ytick_25">
     <g id="line2d_25">
      <g>
       <use xlink:href="#m9116b72d75" x="36.74" y="52.700581" style="fill: #3f3f3f; stroke: #3f3f3f; stroke-width: 0.6"/>
      </g>
     </g>
    </g>
    <g id="ytick_26">
     <g id="line2d_26">
      <g>
       <use xlink:href="#m9116b72d75" x="36.74" y="43.060471" style="fill: #3f3f3f; stroke: #3f3f3f; stroke-width: 0.6"/>
      </g>
     </g>
    </g>
    <g id="ytick_27">
     <g id="line2d_27">
      <g>
       <use xlink:href="#m9116b72d75" x="36.74" y="35.58302" style="fill: #3f3f3f; stroke: #3f3f3f; stroke-width: 0.6"/>
      </g>
     </g>
    </g>
    <g id="ytick_28">
     <g id="line2d_28">
      <g>
       <use xlink:href="#m9116b72d75" x="36.74" y="29.473498" style="fill: #3f3f3f; stroke: #3f3f3f; stroke-width: 0.6"/>
      </g>
     </g>
    </g>
    <g id="ytick_29">
     <g id="line2d_29">
      <g>
       <use xlink:href="#m9116b72d75" x="36.74" y="24.307971" style="fill: #3f3f3f; stroke: #3f3f3f; stroke-width: 0.6"/>
      </g>
     </g>
    </g>
    <g id="ytick_30">
     <g id="line2d_30">
      <g>
       <use xlink:href="#m9116b72d75" x="36.74" y="19.833388" style="fill: #3f3f3f; stroke: #3f3f3f; stroke-width: 0.6"/>
      </g>
     </g>
    </g>
    <g id="ytick_31">
     <g id="line2d_31">
      <g>
       <use xlink:href="#m9116b72d75" x="36.74" y="15.886526" style="fill: #3f3f3f; stroke: #3f3f3f; stroke-width: 0.6"/>
      </g>
     </g>
    </g>
   </g>
   <g id="patch_6">
    <path d="M 36.74 258.75534 
L 36.74 8.115533 
" style="fill: none; stroke: #000000; stroke-width: 0.8; stroke-linejoin: miter; stroke-linecap: square"/>
   </g>
   <g id="patch_7">
    <path d="M 36.74 258.75534 
L 259.984535 258.75534 
" style="fill: none; stroke: #000000; stroke-width: 0.8; stroke-linejoin: miter; stroke-linecap: square"/>
   </g>
   <g id="line2d_32">
    <path d="M 143.021489 258.75534 
L 143.021489 8.115533 
" clip-path="url(#pd3a1c6c13f)" style="fill: none; stroke-dasharray: 7.4,3.2; stroke-dashoffset: 0; stroke: #568b87; stroke-width: 2"/>
   </g>
  </g>
 </g>
 <defs>
  <clipPath id="pd3a1c6c13f">
   <rect x="36.74" y="8.115533" width="223.244535" height="250.639806"/>
  </clipPath>
 </defs>
</svg>
