<?xml version="1.0" encoding="utf-8" standalone="no"?>
<!DOCTYPE svg PUBLIC "-//W3C//DTD SVG 1.1//EN"
  "http://www.w3.org/Graphics/SVG/1.1/DTD/svg11.dtd">
<svg xmlns:xlink="http://www.w3.org/1999/xlink" width="411.070953pt" height="268.125625pt" viewBox="0 0 411.070953 268.125625" xmlns="http://www.w3.org/2000/svg" version="1.1">
 <metadata>
  <rdf:RDF xmlns:dc="http://purl.org/dc/elements/1.1/" xmlns:cc="http://creativecommons.org/ns#" xmlns:rdf="http://www.w3.org/1999/02/22-rdf-syntax-ns#">
   <cc:Work>
    <dc:type rdf:resource="http://purl.org/dc/dcmitype/StillImage"/>
    <dc:date>2025-08-21T23:34:21.793743</dc:date>
    <dc:format>image/svg+xml</dc:format>
    <dc:creator>
     <cc:Agent>
      <dc:title>Matplotlib v3.10.3, https://matplotlib.org/</dc:title>
     </cc:Agent>
    </dc:creator>
   </cc:Work>
  </rdf:RDF>
 </metadata>
 <defs>
  <style type="text/css">*{stroke-linejoin: round; stroke-linecap: butt}</style>
 </defs>
 <g id="figure_1">
  <g id="patch_1">
   <path d="M 0 268.125625 
L 411.070953 268.125625 
L 411.070953 0 
L 0 0 
z
" style="fill: #ffffff"/>
  </g>
  <g id="axes_1">
   <g id="patch_2">
    <path d="M 35.13 242.12 
L 391.027359 242.12 
L 391.027359 7.2 
L 35.13 7.2 
z
" style="fill: #ffffff"/>
   </g>
   <g id="patch_3">
    <path d="M 284.258151 242.12 
L 391.027359 242.12 
L 391.027359 7.2 
L 284.258151 7.2 
z
" clip-path="url(#pde54c69cfd)" style="fill: #b5d1ae; opacity: 0.35"/>
   </g>
   <g id="matplotlib.axis_1">
    <g id="xtick_1">
     <g id="line2d_1">
      <defs>
       <path id="m7e6bf35e1a" d="M 0 0 
L 0 3.5 
" style="stroke: #3f3f3f; stroke-width: 0.8"/>
      </defs>
      <g>
       <use xlink:href="#m7e6bf35e1a" x="35.13" y="242.12" style="fill: #3f3f3f; stroke: #3f3f3f; stroke-width: 0.8"/>
      </g>
     </g>
     <g id="text_1">
      <!-- 0.00 -->
      <g style="fill: #3f3f3f" transform="translate(22.286406 258.695312) scale(0.13 -0.13)">
       <defs>
        <path id="Lato-Regular-30" d="M 3520 2291 
Q 3520 1690 3390 1250 
Q 3261 810 3037 522 
Q 2813 234 2507 93 
Q 2202 -48 1853 -48 
Q 1501 -48 1198 93 
Q 896 234 672 522 
Q 448 810 320 1250 
Q 192 1690 192 2291 
Q 192 2893 320 3334 
Q 448 3776 672 4065 
Q 896 4355 1198 4496 
Q 1501 4637 1853 4637 
Q 2202 4637 2507 4496 
Q 2813 4355 3037 4065 
Q 3261 3776 3390 3334 
Q 3520 2893 3520 2291 
z
M 2928 2291 
Q 2928 2816 2840 3173 
Q 2752 3530 2603 3747 
Q 2454 3965 2259 4059 
Q 2064 4154 1853 4154 
Q 1642 4154 1446 4059 
Q 1251 3965 1104 3747 
Q 957 3530 869 3173 
Q 781 2816 781 2291 
Q 781 1766 869 1411 
Q 957 1056 1104 838 
Q 1251 621 1446 526 
Q 1642 432 1853 432 
Q 2064 432 2259 526 
Q 2454 621 2603 838 
Q 2752 1056 2840 1411 
Q 2928 1766 2928 2291 
z
" transform="scale(0.015625)"/>
        <path id="Lato-Regular-2e" d="M 355 352 
Q 355 435 385 508 
Q 416 582 469 636 
Q 522 691 595 723 
Q 669 755 752 755 
Q 835 755 908 723 
Q 982 691 1036 636 
Q 1091 582 1123 508 
Q 1155 435 1155 352 
Q 1155 266 1123 194 
Q 1091 122 1036 67 
Q 982 13 908 -17 
Q 835 -48 752 -48 
Q 669 -48 595 -17 
Q 522 13 469 67 
Q 416 122 385 194 
Q 355 266 355 352 
z
" transform="scale(0.015625)"/>
       </defs>
       <use xlink:href="#Lato-Regular-30"/>
       <use xlink:href="#Lato-Regular-2e" transform="translate(58 0)"/>
       <use xlink:href="#Lato-Regular-30" transform="translate(81.600006 0)"/>
       <use xlink:href="#Lato-Regular-30" transform="translate(139.600006 0)"/>
      </g>
     </g>
    </g>
    <g id="xtick_2">
     <g id="line2d_2">
      <g>
       <use xlink:href="#m7e6bf35e1a" x="79.61717" y="242.12" style="fill: #3f3f3f; stroke: #3f3f3f; stroke-width: 0.8"/>
      </g>
     </g>
     <g id="text_2">
      <!-- 0.25 -->
      <g style="fill: #3f3f3f" transform="translate(66.773576 258.695312) scale(0.13 -0.13)">
       <defs>
        <path id="Lato-Regular-32" d="M 1891 4637 
Q 2182 4637 2435 4550 
Q 2688 4464 2873 4299 
Q 3059 4134 3164 3897 
Q 3270 3661 3270 3360 
Q 3270 3104 3193 2885 
Q 3117 2666 2985 2467 
Q 2854 2269 2683 2080 
Q 2512 1891 2320 1699 
L 1110 464 
Q 1238 499 1369 520 
Q 1501 541 1622 541 
L 3158 541 
Q 3251 541 3305 486 
Q 3360 432 3360 346 
L 3360 0 
L 301 0 
L 301 195 
Q 301 256 326 320 
Q 352 384 406 438 
L 1875 1914 
Q 2058 2099 2208 2270 
Q 2358 2442 2464 2614 
Q 2570 2787 2627 2964 
Q 2685 3142 2685 3344 
Q 2685 3546 2621 3698 
Q 2557 3850 2446 3949 
Q 2336 4048 2185 4097 
Q 2035 4147 1862 4147 
Q 1686 4147 1539 4096 
Q 1392 4045 1278 3953 
Q 1165 3862 1088 3737 
Q 1011 3613 979 3462 
Q 941 3350 875 3313 
Q 810 3277 691 3293 
L 394 3344 
Q 438 3658 568 3899 
Q 698 4141 894 4304 
Q 1091 4467 1344 4552 
Q 1597 4637 1891 4637 
z
" transform="scale(0.015625)"/>
        <path id="Lato-Regular-35" d="M 3142 4336 
Q 3142 4214 3067 4136 
Q 2992 4058 2810 4058 
L 1370 4058 
L 1158 2854 
Q 1341 2896 1502 2913 
Q 1664 2931 1818 2931 
Q 2176 2931 2451 2825 
Q 2726 2720 2910 2534 
Q 3094 2349 3188 2096 
Q 3283 1843 3283 1546 
Q 3283 1181 3156 886 
Q 3030 592 2808 382 
Q 2586 173 2285 61 
Q 1984 -51 1635 -51 
Q 1434 -51 1248 -11 
Q 1062 29 900 96 
Q 739 163 601 249 
Q 464 336 358 432 
L 534 675 
Q 592 758 685 758 
Q 749 758 829 708 
Q 909 659 1024 598 
Q 1139 538 1294 488 
Q 1450 438 1664 438 
Q 1904 438 2096 515 
Q 2288 592 2425 734 
Q 2563 877 2636 1075 
Q 2710 1274 2710 1520 
Q 2710 1734 2648 1907 
Q 2586 2080 2459 2201 
Q 2333 2323 2144 2390 
Q 1955 2458 1702 2458 
Q 1530 2458 1342 2429 
Q 1155 2400 960 2336 
L 602 2442 
L 970 4586 
L 3142 4586 
L 3142 4336 
z
" transform="scale(0.015625)"/>
       </defs>
       <use xlink:href="#Lato-Regular-30"/>
       <use xlink:href="#Lato-Regular-2e" transform="translate(58 0)"/>
       <use xlink:href="#Lato-Regular-32" transform="translate(81.600006 0)"/>
       <use xlink:href="#Lato-Regular-35" transform="translate(139.600006 0)"/>
      </g>
     </g>
    </g>
    <g id="xtick_3">
     <g id="line2d_3">
      <g>
       <use xlink:href="#m7e6bf35e1a" x="124.10434" y="242.12" style="fill: #3f3f3f; stroke: #3f3f3f; stroke-width: 0.8"/>
      </g>
     </g>
     <g id="text_3">
      <!-- 0.50 -->
      <g style="fill: #3f3f3f" transform="translate(111.260746 258.695312) scale(0.13 -0.13)">
       <use xlink:href="#Lato-Regular-30"/>
       <use xlink:href="#Lato-Regular-2e" transform="translate(58 0)"/>
       <use xlink:href="#Lato-Regular-35" transform="translate(81.600006 0)"/>
       <use xlink:href="#Lato-Regular-30" transform="translate(139.600006 0)"/>
      </g>
     </g>
    </g>
    <g id="xtick_4">
     <g id="line2d_4">
      <g>
       <use xlink:href="#m7e6bf35e1a" x="168.59151" y="242.12" style="fill: #3f3f3f; stroke: #3f3f3f; stroke-width: 0.8"/>
      </g>
     </g>
     <g id="text_4">
      <!-- 0.75 -->
      <g style="fill: #3f3f3f" transform="translate(155.747916 258.695312) scale(0.13 -0.13)">
       <defs>
        <path id="Lato-Regular-37" d="M 3459 4586 
L 3459 4330 
Q 3459 4221 3435 4150 
Q 3411 4080 3389 4032 
L 1488 202 
Q 1446 118 1372 59 
Q 1299 0 1178 0 
L 768 0 
L 2694 3782 
Q 2736 3862 2779 3929 
Q 2822 3997 2877 4058 
L 483 4058 
Q 429 4058 387 4101 
Q 346 4144 346 4198 
L 346 4586 
L 3459 4586 
z
" transform="scale(0.015625)"/>
       </defs>
       <use xlink:href="#Lato-Regular-30"/>
       <use xlink:href="#Lato-Regular-2e" transform="translate(58 0)"/>
       <use xlink:href="#Lato-Regular-37" transform="translate(81.600006 0)"/>
       <use xlink:href="#Lato-Regular-35" transform="translate(139.600006 0)"/>
      </g>
     </g>
    </g>
    <g id="xtick_5">
     <g id="line2d_5">
      <g>
       <use xlink:href="#m7e6bf35e1a" x="213.07868" y="242.12" style="fill: #3f3f3f; stroke: #3f3f3f; stroke-width: 0.8"/>
      </g>
     </g>
     <g id="text_5">
      <!-- 1.00 -->
      <g style="fill: #3f3f3f" transform="translate(200.235086 258.695312) scale(0.13 -0.13)">
       <defs>
        <path id="Lato-Regular-31" d="M 800 435 
L 1782 435 
L 1782 3562 
Q 1782 3696 1792 3846 
L 976 3146 
Q 934 3110 892 3102 
Q 851 3094 816 3100 
Q 781 3107 750 3126 
Q 720 3146 704 3168 
L 525 3414 
L 1891 4595 
L 2355 4595 
L 2355 435 
L 3258 435 
L 3258 0 
L 800 0 
L 800 435 
z
" transform="scale(0.015625)"/>
       </defs>
       <use xlink:href="#Lato-Regular-31"/>
       <use xlink:href="#Lato-Regular-2e" transform="translate(58 0)"/>
       <use xlink:href="#Lato-Regular-30" transform="translate(81.600006 0)"/>
       <use xlink:href="#Lato-Regular-30" transform="translate(139.600006 0)"/>
      </g>
     </g>
    </g>
    <g id="xtick_6">
     <g id="line2d_6">
      <g>
       <use xlink:href="#m7e6bf35e1a" x="257.56585" y="242.12" style="fill: #3f3f3f; stroke: #3f3f3f; stroke-width: 0.8"/>
      </g>
     </g>
     <g id="text_6">
      <!-- 1.25 -->
      <g style="fill: #3f3f3f" transform="translate(244.722256 258.695312) scale(0.13 -0.13)">
       <use xlink:href="#Lato-Regular-31"/>
       <use xlink:href="#Lato-Regular-2e" transform="translate(58 0)"/>
       <use xlink:href="#Lato-Regular-32" transform="translate(81.600006 0)"/>
       <use xlink:href="#Lato-Regular-35" transform="translate(139.600006 0)"/>
      </g>
     </g>
    </g>
    <g id="xtick_7">
     <g id="line2d_7">
      <g>
       <use xlink:href="#m7e6bf35e1a" x="302.053019" y="242.12" style="fill: #3f3f3f; stroke: #3f3f3f; stroke-width: 0.8"/>
      </g>
     </g>
     <g id="text_7">
      <!-- 1.50 -->
      <g style="fill: #3f3f3f" transform="translate(289.209426 258.695312) scale(0.13 -0.13)">
       <use xlink:href="#Lato-Regular-31"/>
       <use xlink:href="#Lato-Regular-2e" transform="translate(58 0)"/>
       <use xlink:href="#Lato-Regular-35" transform="translate(81.600006 0)"/>
       <use xlink:href="#Lato-Regular-30" transform="translate(139.600006 0)"/>
      </g>
     </g>
    </g>
    <g id="xtick_8">
     <g id="line2d_8">
      <g>
       <use xlink:href="#m7e6bf35e1a" x="346.540189" y="242.12" style="fill: #3f3f3f; stroke: #3f3f3f; stroke-width: 0.8"/>
      </g>
     </g>
     <g id="text_8">
      <!-- 1.75 -->
      <g style="fill: #3f3f3f" transform="translate(333.696596 258.695312) scale(0.13 -0.13)">
       <use xlink:href="#Lato-Regular-31"/>
       <use xlink:href="#Lato-Regular-2e" transform="translate(58 0)"/>
       <use xlink:href="#Lato-Regular-37" transform="translate(81.600006 0)"/>
       <use xlink:href="#Lato-Regular-35" transform="translate(139.600006 0)"/>
      </g>
     </g>
    </g>
    <g id="xtick_9">
     <g id="line2d_9">
      <g>
       <use xlink:href="#m7e6bf35e1a" x="391.027359" y="242.12" style="fill: #3f3f3f; stroke: #3f3f3f; stroke-width: 0.8"/>
      </g>
     </g>
     <g id="text_9">
      <!-- 2.00 -->
      <g style="fill: #3f3f3f" transform="translate(378.183766 258.695312) scale(0.13 -0.13)">
       <use xlink:href="#Lato-Regular-32"/>
       <use xlink:href="#Lato-Regular-2e" transform="translate(58 0)"/>
       <use xlink:href="#Lato-Regular-30" transform="translate(81.600006 0)"/>
       <use xlink:href="#Lato-Regular-30" transform="translate(139.600006 0)"/>
      </g>
     </g>
    </g>
   </g>
   <g id="matplotlib.axis_2">
    <g id="ytick_1">
     <g id="line2d_10">
      <defs>
       <path id="m85cce8c673" d="M 0 0 
L -3.5 0 
" style="stroke: #3f3f3f; stroke-width: 0.8"/>
      </defs>
      <g>
       <use xlink:href="#m85cce8c673" x="35.13" y="193.624104" style="fill: #3f3f3f; stroke: #3f3f3f; stroke-width: 0.8"/>
      </g>
     </g>
     <g id="text_10">
      <!-- $\mathdefault{10^{1}}$ -->
      <g style="fill: #3f3f3f" transform="translate(7.2 198.41176) scale(0.13 -0.13)">
       <use xlink:href="#Lato-Regular-31" transform="translate(0 0.282813)"/>
       <use xlink:href="#Lato-Regular-30" transform="translate(58 0.282813)"/>
       <use xlink:href="#Lato-Regular-31" transform="translate(116.886484 35.742188) scale(0.7)"/>
      </g>
     </g>
    </g>
    <g id="ytick_2">
     <g id="line2d_11">
      <g>
       <use xlink:href="#m85cce8c673" x="35.13" y="139.519187" style="fill: #3f3f3f; stroke: #3f3f3f; stroke-width: 0.8"/>
      </g>
     </g>
     <g id="text_11">
      <!-- $\mathdefault{10^{2}}$ -->
      <g style="fill: #3f3f3f" transform="translate(7.2 144.306843) scale(0.13 -0.13)">
       <use xlink:href="#Lato-Regular-31" transform="translate(0 0.823438)"/>
       <use xlink:href="#Lato-Regular-30" transform="translate(58 0.823438)"/>
       <use xlink:href="#Lato-Regular-32" transform="translate(116.886484 36.282813) scale(0.7)"/>
      </g>
     </g>
    </g>
    <g id="ytick_3">
     <g id="line2d_12">
      <g>
       <use xlink:href="#m85cce8c673" x="35.13" y="85.41427" style="fill: #3f3f3f; stroke: #3f3f3f; stroke-width: 0.8"/>
      </g>
     </g>
     <g id="text_12">
      <!-- $\mathdefault{10^{3}}$ -->
      <g style="fill: #3f3f3f" transform="translate(7.2 90.201926) scale(0.13 -0.13)">
       <defs>
        <path id="Lato-Regular-33" d="M 1914 4637 
Q 2205 4637 2451 4553 
Q 2698 4470 2875 4316 
Q 3053 4163 3152 3945 
Q 3251 3728 3251 3462 
Q 3251 3245 3195 3073 
Q 3139 2902 3035 2772 
Q 2931 2643 2784 2553 
Q 2637 2464 2454 2410 
Q 2902 2291 3128 2012 
Q 3354 1734 3354 1315 
Q 3354 998 3234 745 
Q 3114 493 2906 315 
Q 2698 138 2421 43 
Q 2144 -51 1827 -51 
Q 1462 -51 1203 40 
Q 944 131 765 291 
Q 586 451 470 670 
Q 355 890 275 1146 
L 522 1248 
Q 618 1290 709 1270 
Q 800 1251 842 1165 
Q 883 1075 945 950 
Q 1008 826 1117 710 
Q 1226 595 1394 515 
Q 1562 435 1821 435 
Q 2061 435 2241 513 
Q 2422 592 2542 717 
Q 2662 842 2723 995 
Q 2784 1149 2784 1299 
Q 2784 1485 2736 1638 
Q 2688 1792 2557 1904 
Q 2426 2016 2197 2080 
Q 1968 2144 1610 2144 
L 1610 2557 
Q 1904 2560 2110 2621 
Q 2317 2682 2446 2787 
Q 2576 2893 2635 3040 
Q 2694 3187 2694 3366 
Q 2694 3565 2632 3712 
Q 2570 3859 2461 3955 
Q 2352 4051 2203 4099 
Q 2054 4147 1882 4147 
Q 1709 4147 1560 4096 
Q 1411 4045 1297 3953 
Q 1184 3862 1107 3737 
Q 1030 3613 998 3462 
Q 957 3350 894 3313 
Q 832 3277 714 3293 
L 416 3344 
Q 461 3658 589 3899 
Q 717 4141 913 4304 
Q 1110 4467 1364 4552 
Q 1619 4637 1914 4637 
z
" transform="scale(0.015625)"/>
       </defs>
       <use xlink:href="#Lato-Regular-31" transform="translate(0 0.823438)"/>
       <use xlink:href="#Lato-Regular-30" transform="translate(58 0.823438)"/>
       <use xlink:href="#Lato-Regular-33" transform="translate(116.886484 36.282813) scale(0.7)"/>
      </g>
     </g>
    </g>
    <g id="ytick_4">
     <g id="line2d_13">
      <g>
       <use xlink:href="#m85cce8c673" x="35.13" y="31.309353" style="fill: #3f3f3f; stroke: #3f3f3f; stroke-width: 0.8"/>
      </g>
     </g>
     <g id="text_13">
      <!-- $\mathdefault{10^{4}}$ -->
      <g style="fill: #3f3f3f" transform="translate(7.2 36.097009) scale(0.13 -0.13)">
       <defs>
        <path id="Lato-Regular-34" d="M 2835 1654 
L 3530 1654 
L 3530 1328 
Q 3530 1277 3499 1241 
Q 3469 1206 3405 1206 
L 2835 1206 
L 2835 0 
L 2336 0 
L 2336 1206 
L 301 1206 
Q 237 1206 190 1243 
Q 144 1280 131 1334 
L 74 1626 
L 2304 4586 
L 2835 4586 
L 2835 1654 
z
M 2336 3546 
Q 2336 3629 2341 3726 
Q 2346 3824 2362 3926 
L 691 1654 
L 2336 1654 
L 2336 3546 
z
" transform="scale(0.015625)"/>
       </defs>
       <use xlink:href="#Lato-Regular-31" transform="translate(0 0.38125)"/>
       <use xlink:href="#Lato-Regular-30" transform="translate(58 0.38125)"/>
       <use xlink:href="#Lato-Regular-34" transform="translate(116.886484 35.840625) scale(0.7)"/>
      </g>
     </g>
    </g>
    <g id="ytick_5">
     <g id="line2d_14">
      <defs>
       <path id="m38075ac642" d="M 0 0 
L -2 0 
" style="stroke: #3f3f3f; stroke-width: 0.6"/>
      </defs>
      <g>
       <use xlink:href="#m38075ac642" x="35.13" y="231.441818" style="fill: #3f3f3f; stroke: #3f3f3f; stroke-width: 0.6"/>
      </g>
     </g>
    </g>
    <g id="ytick_6">
     <g id="line2d_15">
      <g>
       <use xlink:href="#m38075ac642" x="35.13" y="221.914415" style="fill: #3f3f3f; stroke: #3f3f3f; stroke-width: 0.6"/>
      </g>
     </g>
    </g>
    <g id="ytick_7">
     <g id="line2d_16">
      <g>
       <use xlink:href="#m38075ac642" x="35.13" y="215.154615" style="fill: #3f3f3f; stroke: #3f3f3f; stroke-width: 0.6"/>
      </g>
     </g>
    </g>
    <g id="ytick_8">
     <g id="line2d_17">
      <g>
       <use xlink:href="#m38075ac642" x="35.13" y="209.911307" style="fill: #3f3f3f; stroke: #3f3f3f; stroke-width: 0.6"/>
      </g>
     </g>
    </g>
    <g id="ytick_9">
     <g id="line2d_18">
      <g>
       <use xlink:href="#m38075ac642" x="35.13" y="205.627212" style="fill: #3f3f3f; stroke: #3f3f3f; stroke-width: 0.6"/>
      </g>
     </g>
    </g>
    <g id="ytick_10">
     <g id="line2d_19">
      <g>
       <use xlink:href="#m38075ac642" x="35.13" y="202.005062" style="fill: #3f3f3f; stroke: #3f3f3f; stroke-width: 0.6"/>
      </g>
     </g>
    </g>
    <g id="ytick_11">
     <g id="line2d_20">
      <g>
       <use xlink:href="#m38075ac642" x="35.13" y="198.867412" style="fill: #3f3f3f; stroke: #3f3f3f; stroke-width: 0.6"/>
      </g>
     </g>
    </g>
    <g id="ytick_12">
     <g id="line2d_21">
      <g>
       <use xlink:href="#m38075ac642" x="35.13" y="196.099809" style="fill: #3f3f3f; stroke: #3f3f3f; stroke-width: 0.6"/>
      </g>
     </g>
    </g>
    <g id="ytick_13">
     <g id="line2d_22">
      <g>
       <use xlink:href="#m38075ac642" x="35.13" y="177.336901" style="fill: #3f3f3f; stroke: #3f3f3f; stroke-width: 0.6"/>
      </g>
     </g>
    </g>
    <g id="ytick_14">
     <g id="line2d_23">
      <g>
       <use xlink:href="#m38075ac642" x="35.13" y="167.809498" style="fill: #3f3f3f; stroke: #3f3f3f; stroke-width: 0.6"/>
      </g>
     </g>
    </g>
    <g id="ytick_15">
     <g id="line2d_24">
      <g>
       <use xlink:href="#m38075ac642" x="35.13" y="161.049698" style="fill: #3f3f3f; stroke: #3f3f3f; stroke-width: 0.6"/>
      </g>
     </g>
    </g>
    <g id="ytick_16">
     <g id="line2d_25">
      <g>
       <use xlink:href="#m38075ac642" x="35.13" y="155.80639" style="fill: #3f3f3f; stroke: #3f3f3f; stroke-width: 0.6"/>
      </g>
     </g>
    </g>
    <g id="ytick_17">
     <g id="line2d_26">
      <g>
       <use xlink:href="#m38075ac642" x="35.13" y="151.522295" style="fill: #3f3f3f; stroke: #3f3f3f; stroke-width: 0.6"/>
      </g>
     </g>
    </g>
    <g id="ytick_18">
     <g id="line2d_27">
      <g>
       <use xlink:href="#m38075ac642" x="35.13" y="147.900145" style="fill: #3f3f3f; stroke: #3f3f3f; stroke-width: 0.6"/>
      </g>
     </g>
    </g>
    <g id="ytick_19">
     <g id="line2d_28">
      <g>
       <use xlink:href="#m38075ac642" x="35.13" y="144.762495" style="fill: #3f3f3f; stroke: #3f3f3f; stroke-width: 0.6"/>
      </g>
     </g>
    </g>
    <g id="ytick_20">
     <g id="line2d_29">
      <g>
       <use xlink:href="#m38075ac642" x="35.13" y="141.994892" style="fill: #3f3f3f; stroke: #3f3f3f; stroke-width: 0.6"/>
      </g>
     </g>
    </g>
    <g id="ytick_21">
     <g id="line2d_30">
      <g>
       <use xlink:href="#m38075ac642" x="35.13" y="123.231984" style="fill: #3f3f3f; stroke: #3f3f3f; stroke-width: 0.6"/>
      </g>
     </g>
    </g>
    <g id="ytick_22">
     <g id="line2d_31">
      <g>
       <use xlink:href="#m38075ac642" x="35.13" y="113.704581" style="fill: #3f3f3f; stroke: #3f3f3f; stroke-width: 0.6"/>
      </g>
     </g>
    </g>
    <g id="ytick_23">
     <g id="line2d_32">
      <g>
       <use xlink:href="#m38075ac642" x="35.13" y="106.944781" style="fill: #3f3f3f; stroke: #3f3f3f; stroke-width: 0.6"/>
      </g>
     </g>
    </g>
    <g id="ytick_24">
     <g id="line2d_33">
      <g>
       <use xlink:href="#m38075ac642" x="35.13" y="101.701473" style="fill: #3f3f3f; stroke: #3f3f3f; stroke-width: 0.6"/>
      </g>
     </g>
    </g>
    <g id="ytick_25">
     <g id="line2d_34">
      <g>
       <use xlink:href="#m38075ac642" x="35.13" y="97.417378" style="fill: #3f3f3f; stroke: #3f3f3f; stroke-width: 0.6"/>
      </g>
     </g>
    </g>
    <g id="ytick_26">
     <g id="line2d_35">
      <g>
       <use xlink:href="#m38075ac642" x="35.13" y="93.795228" style="fill: #3f3f3f; stroke: #3f3f3f; stroke-width: 0.6"/>
      </g>
     </g>
    </g>
    <g id="ytick_27">
     <g id="line2d_36">
      <g>
       <use xlink:href="#m38075ac642" x="35.13" y="90.657578" style="fill: #3f3f3f; stroke: #3f3f3f; stroke-width: 0.6"/>
      </g>
     </g>
    </g>
    <g id="ytick_28">
     <g id="line2d_37">
      <g>
       <use xlink:href="#m38075ac642" x="35.13" y="87.889975" style="fill: #3f3f3f; stroke: #3f3f3f; stroke-width: 0.6"/>
      </g>
     </g>
    </g>
    <g id="ytick_29">
     <g id="line2d_38">
      <g>
       <use xlink:href="#m38075ac642" x="35.13" y="69.127067" style="fill: #3f3f3f; stroke: #3f3f3f; stroke-width: 0.6"/>
      </g>
     </g>
    </g>
    <g id="ytick_30">
     <g id="line2d_39">
      <g>
       <use xlink:href="#m38075ac642" x="35.13" y="59.599664" style="fill: #3f3f3f; stroke: #3f3f3f; stroke-width: 0.6"/>
      </g>
     </g>
    </g>
    <g id="ytick_31">
     <g id="line2d_40">
      <g>
       <use xlink:href="#m38075ac642" x="35.13" y="52.839864" style="fill: #3f3f3f; stroke: #3f3f3f; stroke-width: 0.6"/>
      </g>
     </g>
    </g>
    <g id="ytick_32">
     <g id="line2d_41">
      <g>
       <use xlink:href="#m38075ac642" x="35.13" y="47.596556" style="fill: #3f3f3f; stroke: #3f3f3f; stroke-width: 0.6"/>
      </g>
     </g>
    </g>
    <g id="ytick_33">
     <g id="line2d_42">
      <g>
       <use xlink:href="#m38075ac642" x="35.13" y="43.312461" style="fill: #3f3f3f; stroke: #3f3f3f; stroke-width: 0.6"/>
      </g>
     </g>
    </g>
    <g id="ytick_34">
     <g id="line2d_43">
      <g>
       <use xlink:href="#m38075ac642" x="35.13" y="39.690311" style="fill: #3f3f3f; stroke: #3f3f3f; stroke-width: 0.6"/>
      </g>
     </g>
    </g>
    <g id="ytick_35">
     <g id="line2d_44">
      <g>
       <use xlink:href="#m38075ac642" x="35.13" y="36.552661" style="fill: #3f3f3f; stroke: #3f3f3f; stroke-width: 0.6"/>
      </g>
     </g>
    </g>
    <g id="ytick_36">
     <g id="line2d_45">
      <g>
       <use xlink:href="#m38075ac642" x="35.13" y="33.785058" style="fill: #3f3f3f; stroke: #3f3f3f; stroke-width: 0.6"/>
      </g>
     </g>
    </g>
    <g id="ytick_37">
     <g id="line2d_46">
      <g>
       <use xlink:href="#m38075ac642" x="35.13" y="15.02215" style="fill: #3f3f3f; stroke: #3f3f3f; stroke-width: 0.6"/>
      </g>
     </g>
    </g>
   </g>
   <g id="patch_4">
    <path d="M 35.13 242.12 
L 35.13 7.2 
" style="fill: none; stroke: #000000; stroke-width: 0.8; stroke-linejoin: miter; stroke-linecap: square"/>
   </g>
   <g id="patch_5">
    <path d="M 35.13 242.12 
L 391.027359 242.12 
" style="fill: none; stroke: #000000; stroke-width: 0.8; stroke-linejoin: miter; stroke-linecap: square"/>
   </g>
   <g id="patch_6">
    <path d="M 35.13 54352.645993 
L 53.86144 54352.645993 
L 53.86144 17.878182 
L 35.13 17.878182 
z
" clip-path="url(#pde54c69cfd)" style="fill: #1b485e; stroke: #122740; stroke-linejoin: miter"/>
   </g>
   <g id="patch_7">
    <path d="M 53.86144 54352.645993 
L 72.59288 54352.645993 
L 72.59288 19.715352 
L 53.86144 19.715352 
z
" clip-path="url(#pde54c69cfd)" style="fill: #1b485e; stroke: #122740; stroke-linejoin: miter"/>
   </g>
   <g id="patch_8">
    <path d="M 72.59288 54352.645993 
L 91.32432 54352.645993 
L 91.32432 23.297607 
L 72.59288 23.297607 
z
" clip-path="url(#pde54c69cfd)" style="fill: #1b485e; stroke: #122740; stroke-linejoin: miter"/>
   </g>
   <g id="patch_9">
    <path d="M 91.32432 54352.645993 
L 110.05576 54352.645993 
L 110.05576 28.675806 
L 91.32432 28.675806 
z
" clip-path="url(#pde54c69cfd)" style="fill: #1b485e; stroke: #122740; stroke-linejoin: miter"/>
   </g>
   <g id="patch_10">
    <path d="M 110.05576 54352.645993 
L 128.7872 54352.645993 
L 128.7872 35.883783 
L 110.05576 35.883783 
z
" clip-path="url(#pde54c69cfd)" style="fill: #1b485e; stroke: #122740; stroke-linejoin: miter"/>
   </g>
   <g id="patch_11">
    <path d="M 128.7872 54352.645993 
L 147.51864 54352.645993 
L 147.51864 45.203708 
L 128.7872 45.203708 
z
" clip-path="url(#pde54c69cfd)" style="fill: #1b485e; stroke: #122740; stroke-linejoin: miter"/>
   </g>
   <g id="patch_12">
    <path d="M 147.51864 54352.645993 
L 166.25008 54352.645993 
L 166.25008 55.52537 
L 147.51864 55.52537 
z
" clip-path="url(#pde54c69cfd)" style="fill: #1b485e; stroke: #122740; stroke-linejoin: miter"/>
   </g>
   <g id="patch_13">
    <path d="M 166.25008 54352.645993 
L 184.98152 54352.645993 
L 184.98152 68.986504 
L 166.25008 68.986504 
z
" clip-path="url(#pde54c69cfd)" style="fill: #1b485e; stroke: #122740; stroke-linejoin: miter"/>
   </g>
   <g id="patch_14">
    <path d="M 184.98152 54352.645993 
L 203.71296 54352.645993 
L 203.71296 84.133936 
L 184.98152 84.133936 
z
" clip-path="url(#pde54c69cfd)" style="fill: #1b485e; stroke: #122740; stroke-linejoin: miter"/>
   </g>
   <g id="patch_15">
    <path d="M 203.71296 54352.645993 
L 222.4444 54352.645993 
L 222.4444 99.936638 
L 203.71296 99.936638 
z
" clip-path="url(#pde54c69cfd)" style="fill: #1b485e; stroke: #122740; stroke-linejoin: miter"/>
   </g>
   <g id="patch_16">
    <path d="M 222.4444 54352.645993 
L 241.17584 54352.645993 
L 241.17584 115.663838 
L 222.4444 115.663838 
z
" clip-path="url(#pde54c69cfd)" style="fill: #1b485e; stroke: #122740; stroke-linejoin: miter"/>
   </g>
   <g id="patch_17">
    <path d="M 241.17584 54352.645993 
L 259.90728 54352.645993 
L 259.90728 129.526473 
L 241.17584 129.526473 
z
" clip-path="url(#pde54c69cfd)" style="fill: #1b485e; stroke: #122740; stroke-linejoin: miter"/>
   </g>
   <g id="patch_18">
    <path d="M 259.90728 54352.645993 
L 278.63872 54352.645993 
L 278.63872 146.914092 
L 259.90728 146.914092 
z
" clip-path="url(#pde54c69cfd)" style="fill: #1b485e; stroke: #122740; stroke-linejoin: miter"/>
   </g>
   <g id="patch_19">
    <path d="M 278.63872 54352.645993 
L 297.370159 54352.645993 
L 297.370159 157.260305 
L 278.63872 157.260305 
z
" clip-path="url(#pde54c69cfd)" style="fill: #1b485e; stroke: #122740; stroke-linejoin: miter"/>
   </g>
   <g id="patch_20">
    <path d="M 297.370159 54352.645993 
L 316.101599 54352.645993 
L 316.101599 174.05285 
L 297.370159 174.05285 
z
" clip-path="url(#pde54c69cfd)" style="fill: #1b485e; stroke: #122740; stroke-linejoin: miter"/>
   </g>
   <g id="patch_21">
    <path d="M 316.101599 54352.645993 
L 334.833039 54352.645993 
L 334.833039 198.867412 
L 316.101599 198.867412 
z
" clip-path="url(#pde54c69cfd)" style="fill: #1b485e; stroke: #122740; stroke-linejoin: miter"/>
   </g>
   <g id="patch_22">
    <path d="M 334.833039 54352.645993 
L 353.564479 54352.645993 
L 353.564479 215.154615 
L 334.833039 215.154615 
z
" clip-path="url(#pde54c69cfd)" style="fill: #1b485e; stroke: #122740; stroke-linejoin: miter"/>
   </g>
   <g id="patch_23">
    <path d="M 353.564479 54352.645993 
L 372.295919 54352.645993 
L 372.295919 221.914415 
L 353.564479 221.914415 
z
" clip-path="url(#pde54c69cfd)" style="fill: #1b485e; stroke: #122740; stroke-linejoin: miter"/>
   </g>
   <g id="patch_24">
    <path d="M 372.295919 54352.645993 
L 391.027359 54352.645993 
L 391.027359 231.441818 
L 372.295919 231.441818 
z
" clip-path="url(#pde54c69cfd)" style="fill: #1b485e; stroke: #122740; stroke-linejoin: miter"/>
   </g>
   <g id="line2d_47">
    <path d="M 284.258151 242.12 
L 284.258151 7.2 
" clip-path="url(#pde54c69cfd)" style="fill: none; stroke-dasharray: 7.4,3.2; stroke-dashoffset: 0; stroke: #568b87; stroke-width: 2"/>
   </g>
  </g>
 </g>
 <defs>
  <clipPath id="pde54c69cfd">
   <rect x="35.13" y="7.2" width="355.897359" height="234.92"/>
  </clipPath>
 </defs>
</svg>
