<?xml version="1.0" encoding="utf-8" standalone="no"?>
<!DOCTYPE svg PUBLIC "-//W3C//DTD SVG 1.1//EN"
  "http://www.w3.org/Graphics/SVG/1.1/DTD/svg11.dtd">
<svg xmlns:xlink="http://www.w3.org/1999/xlink" width="339.173285pt" height="268.31375pt" viewBox="0 0 339.173285 268.31375" xmlns="http://www.w3.org/2000/svg" version="1.1">
 <metadata>
  <rdf:RDF xmlns:dc="http://purl.org/dc/elements/1.1/" xmlns:cc="http://creativecommons.org/ns#" xmlns:rdf="http://www.w3.org/1999/02/22-rdf-syntax-ns#">
   <cc:Work>
    <dc:type rdf:resource="http://purl.org/dc/dcmitype/StillImage"/>
    <dc:date>2025-08-21T23:34:16.138930</dc:date>
    <dc:format>image/svg+xml</dc:format>
    <dc:creator>
     <cc:Agent>
      <dc:title>Matplotlib v3.10.3, https://matplotlib.org/</dc:title>
     </cc:Agent>
    </dc:creator>
   </cc:Work>
  </rdf:RDF>
 </metadata>
 <defs>
  <style type="text/css">*{stroke-linejoin: round; stroke-linecap: butt}</style>
 </defs>
 <g id="figure_1">
  <g id="patch_1">
   <path d="M 0 268.31375 
L 339.173285 268.31375 
L 339.173285 0 
L 0 0 
z
" style="fill: #ffffff"/>
  </g>
  <g id="axes_1">
   <g id="patch_2">
    <path d="M 36.74 241.4 
L 331.973285 241.4 
L 331.973285 7.2 
L 36.74 7.2 
z
" style="fill: #ffffff"/>
   </g>
   <g id="patch_3">
    <path d="M 162.962926 241.4 
L 205.750359 241.4 
L 205.750359 7.2 
L 162.962926 7.2 
z
" clip-path="url(#p3d15563349)" style="fill: #b5d1ae; opacity: 0.35"/>
   </g>
   <g id="patch_4">
    <path d="M 47.436858 49146.740141 
L 64.551831 49146.740141 
L 64.551831 215.827267 
L 47.436858 215.827267 
z
" clip-path="url(#p3d15563349)" style="fill: #1b485e; stroke: #122740; stroke-linejoin: miter"/>
   </g>
   <g id="patch_5">
    <path d="M 68.830574 49146.740141 
L 85.945547 49146.740141 
L 85.945547 169.959193 
L 68.830574 169.959193 
z
" clip-path="url(#p3d15563349)" style="fill: #1b485e; stroke: #122740; stroke-linejoin: miter"/>
   </g>
   <g id="patch_6">
    <path d="M 90.224291 49146.740141 
L 107.339264 49146.740141 
L 107.339264 117.384273 
L 90.224291 117.384273 
z
" clip-path="url(#p3d15563349)" style="fill: #1b485e; stroke: #122740; stroke-linejoin: miter"/>
   </g>
   <g id="patch_7">
    <path d="M 111.618007 49146.740141 
L 128.73298 49146.740141 
L 128.73298 79.372656 
L 111.618007 79.372656 
z
" clip-path="url(#p3d15563349)" style="fill: #1b485e; stroke: #122740; stroke-linejoin: miter"/>
   </g>
   <g id="patch_8">
    <path d="M 133.011723 49146.740141 
L 150.126696 49146.740141 
L 150.126696 50.541797 
L 133.011723 50.541797 
z
" clip-path="url(#p3d15563349)" style="fill: #1b485e; stroke: #122740; stroke-linejoin: miter"/>
   </g>
   <g id="patch_9">
    <path d="M 154.40544 49146.740141 
L 171.520413 49146.740141 
L 171.520413 31.364464 
L 154.40544 31.364464 
z
" clip-path="url(#p3d15563349)" style="fill: #1b485e; stroke: #122740; stroke-linejoin: miter"/>
   </g>
   <g id="patch_10">
    <path d="M 175.799156 49146.740141 
L 192.914129 49146.740141 
L 192.914129 21.922648 
L 175.799156 21.922648 
z
" clip-path="url(#p3d15563349)" style="fill: #1b485e; stroke: #122740; stroke-linejoin: miter"/>
   </g>
   <g id="patch_11">
    <path d="M 197.192872 49146.740141 
L 214.307845 49146.740141 
L 214.307845 31.657538 
L 197.192872 31.657538 
z
" clip-path="url(#p3d15563349)" style="fill: #1b485e; stroke: #122740; stroke-linejoin: miter"/>
   </g>
   <g id="patch_12">
    <path d="M 218.586588 49146.740141 
L 235.701561 49146.740141 
L 235.701561 52.531968 
L 218.586588 52.531968 
z
" clip-path="url(#p3d15563349)" style="fill: #1b485e; stroke: #122740; stroke-linejoin: miter"/>
   </g>
   <g id="patch_13">
    <path d="M 239.980305 49146.740141 
L 257.095278 49146.740141 
L 257.095278 81.243778 
L 239.980305 81.243778 
z
" clip-path="url(#p3d15563349)" style="fill: #1b485e; stroke: #122740; stroke-linejoin: miter"/>
   </g>
   <g id="patch_14">
    <path d="M 261.374021 49146.740141 
L 278.488994 49146.740141 
L 278.488994 116.443094 
L 261.374021 116.443094 
z
" clip-path="url(#p3d15563349)" style="fill: #1b485e; stroke: #122740; stroke-linejoin: miter"/>
   </g>
   <g id="patch_15">
    <path d="M 282.767737 49146.740141 
L 299.88271 49146.740141 
L 299.88271 157.840654 
L 282.767737 157.840654 
z
" clip-path="url(#p3d15563349)" style="fill: #1b485e; stroke: #122740; stroke-linejoin: miter"/>
   </g>
   <g id="patch_16">
    <path d="M 304.161454 49146.740141 
L 321.276427 49146.740141 
L 321.276427 224.439464 
L 304.161454 224.439464 
z
" clip-path="url(#p3d15563349)" style="fill: #1b485e; stroke: #122740; stroke-linejoin: miter"/>
   </g>
   <g id="matplotlib.axis_1">
    <g id="xtick_1">
     <g id="line2d_1">
      <defs>
       <path id="m6234137616" d="M 0 0 
L 0 3.5 
" style="stroke: #3f3f3f; stroke-width: 0.8"/>
      </defs>
      <g>
       <use xlink:href="#m6234137616" x="55.994345" y="241.4" style="fill: #3f3f3f; stroke: #3f3f3f; stroke-width: 0.8"/>
      </g>
     </g>
     <g id="text_1">
      <!-- −6 -->
      <g style="fill: #3f3f3f" transform="translate(47.874345 258.711875) scale(0.14 -0.14)">
       <defs>
        <path id="Lato-Regular-2212" d="M 480 2365 
L 3232 2365 
L 3232 1933 
L 480 1933 
L 480 2365 
z
" transform="scale(0.015625)"/>
        <path id="Lato-Regular-36" d="M 1517 2867 
Q 1453 2790 1398 2716 
Q 1344 2643 1290 2573 
Q 1453 2685 1649 2747 
Q 1846 2810 2077 2810 
Q 2355 2810 2601 2718 
Q 2848 2627 3032 2452 
Q 3216 2278 3325 2024 
Q 3434 1770 3434 1443 
Q 3434 1126 3318 854 
Q 3203 582 2996 380 
Q 2790 179 2500 64 
Q 2211 -51 1862 -51 
Q 1517 -51 1235 59 
Q 954 170 757 373 
Q 560 576 453 865 
Q 346 1155 346 1514 
Q 346 1814 478 2155 
Q 611 2496 902 2883 
L 2067 4448 
Q 2112 4506 2190 4546 
Q 2269 4586 2371 4586 
L 2877 4586 
L 1517 2867 
z
M 893 1414 
Q 893 1194 957 1011 
Q 1021 829 1144 697 
Q 1267 566 1444 494 
Q 1622 422 1850 422 
Q 2080 422 2267 496 
Q 2454 570 2587 701 
Q 2720 832 2792 1011 
Q 2864 1190 2864 1402 
Q 2864 1626 2793 1806 
Q 2723 1987 2593 2113 
Q 2464 2240 2285 2307 
Q 2106 2374 1891 2374 
Q 1661 2374 1475 2296 
Q 1290 2218 1160 2085 
Q 1030 1952 961 1777 
Q 893 1603 893 1414 
z
" transform="scale(0.015625)"/>
       </defs>
       <use xlink:href="#Lato-Regular-2212"/>
       <use xlink:href="#Lato-Regular-36" transform="translate(58 0)"/>
      </g>
     </g>
    </g>
    <g id="xtick_2">
     <g id="line2d_2">
      <g>
       <use xlink:href="#m6234137616" x="77.388061" y="241.4" style="fill: #3f3f3f; stroke: #3f3f3f; stroke-width: 0.8"/>
      </g>
     </g>
     <g id="text_2">
      <!-- −5 -->
      <g style="fill: #3f3f3f" transform="translate(69.268061 258.711875) scale(0.14 -0.14)">
       <defs>
        <path id="Lato-Regular-35" d="M 3142 4336 
Q 3142 4214 3067 4136 
Q 2992 4058 2810 4058 
L 1370 4058 
L 1158 2854 
Q 1341 2896 1502 2913 
Q 1664 2931 1818 2931 
Q 2176 2931 2451 2825 
Q 2726 2720 2910 2534 
Q 3094 2349 3188 2096 
Q 3283 1843 3283 1546 
Q 3283 1181 3156 886 
Q 3030 592 2808 382 
Q 2586 173 2285 61 
Q 1984 -51 1635 -51 
Q 1434 -51 1248 -11 
Q 1062 29 900 96 
Q 739 163 601 249 
Q 464 336 358 432 
L 534 675 
Q 592 758 685 758 
Q 749 758 829 708 
Q 909 659 1024 598 
Q 1139 538 1294 488 
Q 1450 438 1664 438 
Q 1904 438 2096 515 
Q 2288 592 2425 734 
Q 2563 877 2636 1075 
Q 2710 1274 2710 1520 
Q 2710 1734 2648 1907 
Q 2586 2080 2459 2201 
Q 2333 2323 2144 2390 
Q 1955 2458 1702 2458 
Q 1530 2458 1342 2429 
Q 1155 2400 960 2336 
L 602 2442 
L 970 4586 
L 3142 4586 
L 3142 4336 
z
" transform="scale(0.015625)"/>
       </defs>
       <use xlink:href="#Lato-Regular-2212"/>
       <use xlink:href="#Lato-Regular-35" transform="translate(58 0)"/>
      </g>
     </g>
    </g>
    <g id="xtick_3">
     <g id="line2d_3">
      <g>
       <use xlink:href="#m6234137616" x="98.781777" y="241.4" style="fill: #3f3f3f; stroke: #3f3f3f; stroke-width: 0.8"/>
      </g>
     </g>
     <g id="text_3">
      <!-- −4 -->
      <g style="fill: #3f3f3f" transform="translate(90.661777 258.711875) scale(0.14 -0.14)">
       <defs>
        <path id="Lato-Regular-34" d="M 2835 1654 
L 3530 1654 
L 3530 1328 
Q 3530 1277 3499 1241 
Q 3469 1206 3405 1206 
L 2835 1206 
L 2835 0 
L 2336 0 
L 2336 1206 
L 301 1206 
Q 237 1206 190 1243 
Q 144 1280 131 1334 
L 74 1626 
L 2304 4586 
L 2835 4586 
L 2835 1654 
z
M 2336 3546 
Q 2336 3629 2341 3726 
Q 2346 3824 2362 3926 
L 691 1654 
L 2336 1654 
L 2336 3546 
z
" transform="scale(0.015625)"/>
       </defs>
       <use xlink:href="#Lato-Regular-2212"/>
       <use xlink:href="#Lato-Regular-34" transform="translate(58 0)"/>
      </g>
     </g>
    </g>
    <g id="xtick_4">
     <g id="line2d_4">
      <g>
       <use xlink:href="#m6234137616" x="120.175493" y="241.4" style="fill: #3f3f3f; stroke: #3f3f3f; stroke-width: 0.8"/>
      </g>
     </g>
     <g id="text_4">
      <!-- −3 -->
      <g style="fill: #3f3f3f" transform="translate(112.055493 258.711875) scale(0.14 -0.14)">
       <defs>
        <path id="Lato-Regular-33" d="M 1914 4637 
Q 2205 4637 2451 4553 
Q 2698 4470 2875 4316 
Q 3053 4163 3152 3945 
Q 3251 3728 3251 3462 
Q 3251 3245 3195 3073 
Q 3139 2902 3035 2772 
Q 2931 2643 2784 2553 
Q 2637 2464 2454 2410 
Q 2902 2291 3128 2012 
Q 3354 1734 3354 1315 
Q 3354 998 3234 745 
Q 3114 493 2906 315 
Q 2698 138 2421 43 
Q 2144 -51 1827 -51 
Q 1462 -51 1203 40 
Q 944 131 765 291 
Q 586 451 470 670 
Q 355 890 275 1146 
L 522 1248 
Q 618 1290 709 1270 
Q 800 1251 842 1165 
Q 883 1075 945 950 
Q 1008 826 1117 710 
Q 1226 595 1394 515 
Q 1562 435 1821 435 
Q 2061 435 2241 513 
Q 2422 592 2542 717 
Q 2662 842 2723 995 
Q 2784 1149 2784 1299 
Q 2784 1485 2736 1638 
Q 2688 1792 2557 1904 
Q 2426 2016 2197 2080 
Q 1968 2144 1610 2144 
L 1610 2557 
Q 1904 2560 2110 2621 
Q 2317 2682 2446 2787 
Q 2576 2893 2635 3040 
Q 2694 3187 2694 3366 
Q 2694 3565 2632 3712 
Q 2570 3859 2461 3955 
Q 2352 4051 2203 4099 
Q 2054 4147 1882 4147 
Q 1709 4147 1560 4096 
Q 1411 4045 1297 3953 
Q 1184 3862 1107 3737 
Q 1030 3613 998 3462 
Q 957 3350 894 3313 
Q 832 3277 714 3293 
L 416 3344 
Q 461 3658 589 3899 
Q 717 4141 913 4304 
Q 1110 4467 1364 4552 
Q 1619 4637 1914 4637 
z
" transform="scale(0.015625)"/>
       </defs>
       <use xlink:href="#Lato-Regular-2212"/>
       <use xlink:href="#Lato-Regular-33" transform="translate(58 0)"/>
      </g>
     </g>
    </g>
    <g id="xtick_5">
     <g id="line2d_5">
      <g>
       <use xlink:href="#m6234137616" x="141.56921" y="241.4" style="fill: #3f3f3f; stroke: #3f3f3f; stroke-width: 0.8"/>
      </g>
     </g>
     <g id="text_5">
      <!-- −2 -->
      <g style="fill: #3f3f3f" transform="translate(133.44921 258.711875) scale(0.14 -0.14)">
       <defs>
        <path id="Lato-Regular-32" d="M 1891 4637 
Q 2182 4637 2435 4550 
Q 2688 4464 2873 4299 
Q 3059 4134 3164 3897 
Q 3270 3661 3270 3360 
Q 3270 3104 3193 2885 
Q 3117 2666 2985 2467 
Q 2854 2269 2683 2080 
Q 2512 1891 2320 1699 
L 1110 464 
Q 1238 499 1369 520 
Q 1501 541 1622 541 
L 3158 541 
Q 3251 541 3305 486 
Q 3360 432 3360 346 
L 3360 0 
L 301 0 
L 301 195 
Q 301 256 326 320 
Q 352 384 406 438 
L 1875 1914 
Q 2058 2099 2208 2270 
Q 2358 2442 2464 2614 
Q 2570 2787 2627 2964 
Q 2685 3142 2685 3344 
Q 2685 3546 2621 3698 
Q 2557 3850 2446 3949 
Q 2336 4048 2185 4097 
Q 2035 4147 1862 4147 
Q 1686 4147 1539 4096 
Q 1392 4045 1278 3953 
Q 1165 3862 1088 3737 
Q 1011 3613 979 3462 
Q 941 3350 875 3313 
Q 810 3277 691 3293 
L 394 3344 
Q 438 3658 568 3899 
Q 698 4141 894 4304 
Q 1091 4467 1344 4552 
Q 1597 4637 1891 4637 
z
" transform="scale(0.015625)"/>
       </defs>
       <use xlink:href="#Lato-Regular-2212"/>
       <use xlink:href="#Lato-Regular-32" transform="translate(58 0)"/>
      </g>
     </g>
    </g>
    <g id="xtick_6">
     <g id="line2d_6">
      <g>
       <use xlink:href="#m6234137616" x="162.962926" y="241.4" style="fill: #3f3f3f; stroke: #3f3f3f; stroke-width: 0.8"/>
      </g>
     </g>
     <g id="text_6">
      <!-- −1 -->
      <g style="fill: #3f3f3f" transform="translate(154.842926 258.711875) scale(0.14 -0.14)">
       <defs>
        <path id="Lato-Regular-31" d="M 800 435 
L 1782 435 
L 1782 3562 
Q 1782 3696 1792 3846 
L 976 3146 
Q 934 3110 892 3102 
Q 851 3094 816 3100 
Q 781 3107 750 3126 
Q 720 3146 704 3168 
L 525 3414 
L 1891 4595 
L 2355 4595 
L 2355 435 
L 3258 435 
L 3258 0 
L 800 0 
L 800 435 
z
" transform="scale(0.015625)"/>
       </defs>
       <use xlink:href="#Lato-Regular-2212"/>
       <use xlink:href="#Lato-Regular-31" transform="translate(58 0)"/>
      </g>
     </g>
    </g>
    <g id="xtick_7">
     <g id="line2d_7">
      <g>
       <use xlink:href="#m6234137616" x="184.356642" y="241.4" style="fill: #3f3f3f; stroke: #3f3f3f; stroke-width: 0.8"/>
      </g>
     </g>
     <g id="text_7">
      <!-- 0 -->
      <g style="fill: #3f3f3f" transform="translate(180.296642 258.711875) scale(0.14 -0.14)">
       <defs>
        <path id="Lato-Regular-30" d="M 3520 2291 
Q 3520 1690 3390 1250 
Q 3261 810 3037 522 
Q 2813 234 2507 93 
Q 2202 -48 1853 -48 
Q 1501 -48 1198 93 
Q 896 234 672 522 
Q 448 810 320 1250 
Q 192 1690 192 2291 
Q 192 2893 320 3334 
Q 448 3776 672 4065 
Q 896 4355 1198 4496 
Q 1501 4637 1853 4637 
Q 2202 4637 2507 4496 
Q 2813 4355 3037 4065 
Q 3261 3776 3390 3334 
Q 3520 2893 3520 2291 
z
M 2928 2291 
Q 2928 2816 2840 3173 
Q 2752 3530 2603 3747 
Q 2454 3965 2259 4059 
Q 2064 4154 1853 4154 
Q 1642 4154 1446 4059 
Q 1251 3965 1104 3747 
Q 957 3530 869 3173 
Q 781 2816 781 2291 
Q 781 1766 869 1411 
Q 957 1056 1104 838 
Q 1251 621 1446 526 
Q 1642 432 1853 432 
Q 2064 432 2259 526 
Q 2454 621 2603 838 
Q 2752 1056 2840 1411 
Q 2928 1766 2928 2291 
z
" transform="scale(0.015625)"/>
       </defs>
       <use xlink:href="#Lato-Regular-30"/>
      </g>
     </g>
    </g>
    <g id="xtick_8">
     <g id="line2d_8">
      <g>
       <use xlink:href="#m6234137616" x="205.750359" y="241.4" style="fill: #3f3f3f; stroke: #3f3f3f; stroke-width: 0.8"/>
      </g>
     </g>
     <g id="text_8">
      <!-- 1 -->
      <g style="fill: #3f3f3f" transform="translate(201.690359 258.711875) scale(0.14 -0.14)">
       <use xlink:href="#Lato-Regular-31"/>
      </g>
     </g>
    </g>
    <g id="xtick_9">
     <g id="line2d_9">
      <g>
       <use xlink:href="#m6234137616" x="227.144075" y="241.4" style="fill: #3f3f3f; stroke: #3f3f3f; stroke-width: 0.8"/>
      </g>
     </g>
     <g id="text_9">
      <!-- 2 -->
      <g style="fill: #3f3f3f" transform="translate(223.084075 258.711875) scale(0.14 -0.14)">
       <use xlink:href="#Lato-Regular-32"/>
      </g>
     </g>
    </g>
    <g id="xtick_10">
     <g id="line2d_10">
      <g>
       <use xlink:href="#m6234137616" x="248.537791" y="241.4" style="fill: #3f3f3f; stroke: #3f3f3f; stroke-width: 0.8"/>
      </g>
     </g>
     <g id="text_10">
      <!-- 3 -->
      <g style="fill: #3f3f3f" transform="translate(244.477791 258.711875) scale(0.14 -0.14)">
       <use xlink:href="#Lato-Regular-33"/>
      </g>
     </g>
    </g>
    <g id="xtick_11">
     <g id="line2d_11">
      <g>
       <use xlink:href="#m6234137616" x="269.931507" y="241.4" style="fill: #3f3f3f; stroke: #3f3f3f; stroke-width: 0.8"/>
      </g>
     </g>
     <g id="text_11">
      <!-- 4 -->
      <g style="fill: #3f3f3f" transform="translate(265.871507 258.711875) scale(0.14 -0.14)">
       <use xlink:href="#Lato-Regular-34"/>
      </g>
     </g>
    </g>
    <g id="xtick_12">
     <g id="line2d_12">
      <g>
       <use xlink:href="#m6234137616" x="291.325224" y="241.4" style="fill: #3f3f3f; stroke: #3f3f3f; stroke-width: 0.8"/>
      </g>
     </g>
     <g id="text_12">
      <!-- 5 -->
      <g style="fill: #3f3f3f" transform="translate(287.265224 258.711875) scale(0.14 -0.14)">
       <use xlink:href="#Lato-Regular-35"/>
      </g>
     </g>
    </g>
    <g id="xtick_13">
     <g id="line2d_13">
      <g>
       <use xlink:href="#m6234137616" x="312.71894" y="241.4" style="fill: #3f3f3f; stroke: #3f3f3f; stroke-width: 0.8"/>
      </g>
     </g>
     <g id="text_13">
      <!-- 6 -->
      <g style="fill: #3f3f3f" transform="translate(308.65894 258.711875) scale(0.14 -0.14)">
       <use xlink:href="#Lato-Regular-36"/>
      </g>
     </g>
    </g>
   </g>
   <g id="matplotlib.axis_2">
    <g id="ytick_1">
     <g id="line2d_14">
      <defs>
       <path id="mcd579a9ce9" d="M 0 0 
L -3.5 0 
" style="stroke: #3f3f3f; stroke-width: 0.8"/>
      </defs>
      <g>
       <use xlink:href="#mcd579a9ce9" x="36.74" y="239.162112" style="fill: #3f3f3f; stroke: #3f3f3f; stroke-width: 0.8"/>
      </g>
     </g>
     <g id="text_14">
      <!-- $\mathdefault{10^{0}}$ -->
      <g style="fill: #3f3f3f" transform="translate(7.2 244.318049) scale(0.14 -0.14)">
       <use xlink:href="#Lato-Regular-31" transform="translate(0 0.823438)"/>
       <use xlink:href="#Lato-Regular-30" transform="translate(58 0.823438)"/>
       <use xlink:href="#Lato-Regular-30" transform="translate(116.886484 36.282813) scale(0.7)"/>
      </g>
     </g>
    </g>
    <g id="ytick_2">
     <g id="line2d_15">
      <g>
       <use xlink:href="#mcd579a9ce9" x="36.74" y="190.254534" style="fill: #3f3f3f; stroke: #3f3f3f; stroke-width: 0.8"/>
      </g>
     </g>
     <g id="text_15">
      <!-- $\mathdefault{10^{1}}$ -->
      <g style="fill: #3f3f3f" transform="translate(7.2 195.410471) scale(0.14 -0.14)">
       <use xlink:href="#Lato-Regular-31" transform="translate(0 0.282813)"/>
       <use xlink:href="#Lato-Regular-30" transform="translate(58 0.282813)"/>
       <use xlink:href="#Lato-Regular-31" transform="translate(116.886484 35.742188) scale(0.7)"/>
      </g>
     </g>
    </g>
    <g id="ytick_3">
     <g id="line2d_16">
      <g>
       <use xlink:href="#mcd579a9ce9" x="36.74" y="141.346956" style="fill: #3f3f3f; stroke: #3f3f3f; stroke-width: 0.8"/>
      </g>
     </g>
     <g id="text_16">
      <!-- $\mathdefault{10^{2}}$ -->
      <g style="fill: #3f3f3f" transform="translate(7.2 146.502893) scale(0.14 -0.14)">
       <use xlink:href="#Lato-Regular-31" transform="translate(0 0.823438)"/>
       <use xlink:href="#Lato-Regular-30" transform="translate(58 0.823438)"/>
       <use xlink:href="#Lato-Regular-32" transform="translate(116.886484 36.282813) scale(0.7)"/>
      </g>
     </g>
    </g>
    <g id="ytick_4">
     <g id="line2d_17">
      <g>
       <use xlink:href="#mcd579a9ce9" x="36.74" y="92.439378" style="fill: #3f3f3f; stroke: #3f3f3f; stroke-width: 0.8"/>
      </g>
     </g>
     <g id="text_17">
      <!-- $\mathdefault{10^{3}}$ -->
      <g style="fill: #3f3f3f" transform="translate(7.2 97.595315) scale(0.14 -0.14)">
       <use xlink:href="#Lato-Regular-31" transform="translate(0 0.823438)"/>
       <use xlink:href="#Lato-Regular-30" transform="translate(58 0.823438)"/>
       <use xlink:href="#Lato-Regular-33" transform="translate(116.886484 36.282813) scale(0.7)"/>
      </g>
     </g>
    </g>
    <g id="ytick_5">
     <g id="line2d_18">
      <g>
       <use xlink:href="#mcd579a9ce9" x="36.74" y="43.5318" style="fill: #3f3f3f; stroke: #3f3f3f; stroke-width: 0.8"/>
      </g>
     </g>
     <g id="text_18">
      <!-- $\mathdefault{10^{4}}$ -->
      <g style="fill: #3f3f3f" transform="translate(7.2 48.687737) scale(0.14 -0.14)">
       <use xlink:href="#Lato-Regular-31" transform="translate(0 0.38125)"/>
       <use xlink:href="#Lato-Regular-30" transform="translate(58 0.38125)"/>
       <use xlink:href="#Lato-Regular-34" transform="translate(116.886484 35.840625) scale(0.7)"/>
      </g>
     </g>
    </g>
    <g id="ytick_6">
     <g id="line2d_19">
      <defs>
       <path id="mb57a00e1b1" d="M 0 0 
L -2 0 
" style="stroke: #3f3f3f; stroke-width: 0.6"/>
      </defs>
      <g>
       <use xlink:href="#mb57a00e1b1" x="36.74" y="241.4" style="fill: #3f3f3f; stroke: #3f3f3f; stroke-width: 0.6"/>
      </g>
     </g>
    </g>
    <g id="ytick_7">
     <g id="line2d_20">
      <g>
       <use xlink:href="#mb57a00e1b1" x="36.74" y="224.439464" style="fill: #3f3f3f; stroke: #3f3f3f; stroke-width: 0.6"/>
      </g>
     </g>
    </g>
    <g id="ytick_8">
     <g id="line2d_21">
      <g>
       <use xlink:href="#mb57a00e1b1" x="36.74" y="215.827267" style="fill: #3f3f3f; stroke: #3f3f3f; stroke-width: 0.6"/>
      </g>
     </g>
    </g>
    <g id="ytick_9">
     <g id="line2d_22">
      <g>
       <use xlink:href="#mb57a00e1b1" x="36.74" y="209.716816" style="fill: #3f3f3f; stroke: #3f3f3f; stroke-width: 0.6"/>
      </g>
     </g>
    </g>
    <g id="ytick_10">
     <g id="line2d_23">
      <g>
       <use xlink:href="#mb57a00e1b1" x="36.74" y="204.977182" style="fill: #3f3f3f; stroke: #3f3f3f; stroke-width: 0.6"/>
      </g>
     </g>
    </g>
    <g id="ytick_11">
     <g id="line2d_24">
      <g>
       <use xlink:href="#mb57a00e1b1" x="36.74" y="201.104619" style="fill: #3f3f3f; stroke: #3f3f3f; stroke-width: 0.6"/>
      </g>
     </g>
    </g>
    <g id="ytick_12">
     <g id="line2d_25">
      <g>
       <use xlink:href="#mb57a00e1b1" x="36.74" y="197.830414" style="fill: #3f3f3f; stroke: #3f3f3f; stroke-width: 0.6"/>
      </g>
     </g>
    </g>
    <g id="ytick_13">
     <g id="line2d_26">
      <g>
       <use xlink:href="#mb57a00e1b1" x="36.74" y="194.994168" style="fill: #3f3f3f; stroke: #3f3f3f; stroke-width: 0.6"/>
      </g>
     </g>
    </g>
    <g id="ytick_14">
     <g id="line2d_27">
      <g>
       <use xlink:href="#mb57a00e1b1" x="36.74" y="192.492422" style="fill: #3f3f3f; stroke: #3f3f3f; stroke-width: 0.6"/>
      </g>
     </g>
    </g>
    <g id="ytick_15">
     <g id="line2d_28">
      <g>
       <use xlink:href="#mb57a00e1b1" x="36.74" y="175.531886" style="fill: #3f3f3f; stroke: #3f3f3f; stroke-width: 0.6"/>
      </g>
     </g>
    </g>
    <g id="ytick_16">
     <g id="line2d_29">
      <g>
       <use xlink:href="#mb57a00e1b1" x="36.74" y="166.919689" style="fill: #3f3f3f; stroke: #3f3f3f; stroke-width: 0.6"/>
      </g>
     </g>
    </g>
    <g id="ytick_17">
     <g id="line2d_30">
      <g>
       <use xlink:href="#mb57a00e1b1" x="36.74" y="160.809238" style="fill: #3f3f3f; stroke: #3f3f3f; stroke-width: 0.6"/>
      </g>
     </g>
    </g>
    <g id="ytick_18">
     <g id="line2d_31">
      <g>
       <use xlink:href="#mb57a00e1b1" x="36.74" y="156.069604" style="fill: #3f3f3f; stroke: #3f3f3f; stroke-width: 0.6"/>
      </g>
     </g>
    </g>
    <g id="ytick_19">
     <g id="line2d_32">
      <g>
       <use xlink:href="#mb57a00e1b1" x="36.74" y="152.197041" style="fill: #3f3f3f; stroke: #3f3f3f; stroke-width: 0.6"/>
      </g>
     </g>
    </g>
    <g id="ytick_20">
     <g id="line2d_33">
      <g>
       <use xlink:href="#mb57a00e1b1" x="36.74" y="148.922836" style="fill: #3f3f3f; stroke: #3f3f3f; stroke-width: 0.6"/>
      </g>
     </g>
    </g>
    <g id="ytick_21">
     <g id="line2d_34">
      <g>
       <use xlink:href="#mb57a00e1b1" x="36.74" y="146.08659" style="fill: #3f3f3f; stroke: #3f3f3f; stroke-width: 0.6"/>
      </g>
     </g>
    </g>
    <g id="ytick_22">
     <g id="line2d_35">
      <g>
       <use xlink:href="#mb57a00e1b1" x="36.74" y="143.584844" style="fill: #3f3f3f; stroke: #3f3f3f; stroke-width: 0.6"/>
      </g>
     </g>
    </g>
    <g id="ytick_23">
     <g id="line2d_36">
      <g>
       <use xlink:href="#mb57a00e1b1" x="36.74" y="126.624308" style="fill: #3f3f3f; stroke: #3f3f3f; stroke-width: 0.6"/>
      </g>
     </g>
    </g>
    <g id="ytick_24">
     <g id="line2d_37">
      <g>
       <use xlink:href="#mb57a00e1b1" x="36.74" y="118.012111" style="fill: #3f3f3f; stroke: #3f3f3f; stroke-width: 0.6"/>
      </g>
     </g>
    </g>
    <g id="ytick_25">
     <g id="line2d_38">
      <g>
       <use xlink:href="#mb57a00e1b1" x="36.74" y="111.90166" style="fill: #3f3f3f; stroke: #3f3f3f; stroke-width: 0.6"/>
      </g>
     </g>
    </g>
    <g id="ytick_26">
     <g id="line2d_39">
      <g>
       <use xlink:href="#mb57a00e1b1" x="36.74" y="107.162026" style="fill: #3f3f3f; stroke: #3f3f3f; stroke-width: 0.6"/>
      </g>
     </g>
    </g>
    <g id="ytick_27">
     <g id="line2d_40">
      <g>
       <use xlink:href="#mb57a00e1b1" x="36.74" y="103.289463" style="fill: #3f3f3f; stroke: #3f3f3f; stroke-width: 0.6"/>
      </g>
     </g>
    </g>
    <g id="ytick_28">
     <g id="line2d_41">
      <g>
       <use xlink:href="#mb57a00e1b1" x="36.74" y="100.015258" style="fill: #3f3f3f; stroke: #3f3f3f; stroke-width: 0.6"/>
      </g>
     </g>
    </g>
    <g id="ytick_29">
     <g id="line2d_42">
      <g>
       <use xlink:href="#mb57a00e1b1" x="36.74" y="97.179012" style="fill: #3f3f3f; stroke: #3f3f3f; stroke-width: 0.6"/>
      </g>
     </g>
    </g>
    <g id="ytick_30">
     <g id="line2d_43">
      <g>
       <use xlink:href="#mb57a00e1b1" x="36.74" y="94.677266" style="fill: #3f3f3f; stroke: #3f3f3f; stroke-width: 0.6"/>
      </g>
     </g>
    </g>
    <g id="ytick_31">
     <g id="line2d_44">
      <g>
       <use xlink:href="#mb57a00e1b1" x="36.74" y="77.71673" style="fill: #3f3f3f; stroke: #3f3f3f; stroke-width: 0.6"/>
      </g>
     </g>
    </g>
    <g id="ytick_32">
     <g id="line2d_45">
      <g>
       <use xlink:href="#mb57a00e1b1" x="36.74" y="69.104533" style="fill: #3f3f3f; stroke: #3f3f3f; stroke-width: 0.6"/>
      </g>
     </g>
    </g>
    <g id="ytick_33">
     <g id="line2d_46">
      <g>
       <use xlink:href="#mb57a00e1b1" x="36.74" y="62.994082" style="fill: #3f3f3f; stroke: #3f3f3f; stroke-width: 0.6"/>
      </g>
     </g>
    </g>
    <g id="ytick_34">
     <g id="line2d_47">
      <g>
       <use xlink:href="#mb57a00e1b1" x="36.74" y="58.254448" style="fill: #3f3f3f; stroke: #3f3f3f; stroke-width: 0.6"/>
      </g>
     </g>
    </g>
    <g id="ytick_35">
     <g id="line2d_48">
      <g>
       <use xlink:href="#mb57a00e1b1" x="36.74" y="54.381885" style="fill: #3f3f3f; stroke: #3f3f3f; stroke-width: 0.6"/>
      </g>
     </g>
    </g>
    <g id="ytick_36">
     <g id="line2d_49">
      <g>
       <use xlink:href="#mb57a00e1b1" x="36.74" y="51.10768" style="fill: #3f3f3f; stroke: #3f3f3f; stroke-width: 0.6"/>
      </g>
     </g>
    </g>
    <g id="ytick_37">
     <g id="line2d_50">
      <g>
       <use xlink:href="#mb57a00e1b1" x="36.74" y="48.271434" style="fill: #3f3f3f; stroke: #3f3f3f; stroke-width: 0.6"/>
      </g>
     </g>
    </g>
    <g id="ytick_38">
     <g id="line2d_51">
      <g>
       <use xlink:href="#mb57a00e1b1" x="36.74" y="45.769688" style="fill: #3f3f3f; stroke: #3f3f3f; stroke-width: 0.6"/>
      </g>
     </g>
    </g>
    <g id="ytick_39">
     <g id="line2d_52">
      <g>
       <use xlink:href="#mb57a00e1b1" x="36.74" y="28.809152" style="fill: #3f3f3f; stroke: #3f3f3f; stroke-width: 0.6"/>
      </g>
     </g>
    </g>
    <g id="ytick_40">
     <g id="line2d_53">
      <g>
       <use xlink:href="#mb57a00e1b1" x="36.74" y="20.196955" style="fill: #3f3f3f; stroke: #3f3f3f; stroke-width: 0.6"/>
      </g>
     </g>
    </g>
    <g id="ytick_41">
     <g id="line2d_54">
      <g>
       <use xlink:href="#mb57a00e1b1" x="36.74" y="14.086504" style="fill: #3f3f3f; stroke: #3f3f3f; stroke-width: 0.6"/>
      </g>
     </g>
    </g>
    <g id="ytick_42">
     <g id="line2d_55">
      <g>
       <use xlink:href="#mb57a00e1b1" x="36.74" y="9.34687" style="fill: #3f3f3f; stroke: #3f3f3f; stroke-width: 0.6"/>
      </g>
     </g>
    </g>
   </g>
   <g id="patch_17">
    <path d="M 36.74 241.4 
L 36.74 7.2 
" style="fill: none; stroke: #000000; stroke-width: 0.8; stroke-linejoin: miter; stroke-linecap: square"/>
   </g>
   <g id="patch_18">
    <path d="M 36.74 241.4 
L 331.973285 241.4 
" style="fill: none; stroke: #000000; stroke-width: 0.8; stroke-linejoin: miter; stroke-linecap: square"/>
   </g>
   <g id="line2d_56">
    <path d="M 162.962926 241.4 
L 162.962926 7.2 
" clip-path="url(#p3d15563349)" style="fill: none; stroke-dasharray: 7.4,3.2; stroke-dashoffset: 0; stroke: #568b87; stroke-width: 2"/>
   </g>
   <g id="line2d_57">
    <path d="M 205.750359 241.4 
L 205.750359 7.2 
" clip-path="url(#p3d15563349)" style="fill: none; stroke-dasharray: 7.4,3.2; stroke-dashoffset: 0; stroke: #568b87; stroke-width: 2"/>
   </g>
  </g>
 </g>
 <defs>
  <clipPath id="p3d15563349">
   <rect x="36.74" y="7.2" width="295.233285" height="234.2"/>
  </clipPath>
 </defs>
</svg>
