<?xml version="1.0" encoding="utf-8" standalone="no"?>
<!DOCTYPE svg PUBLIC "-//W3C//DTD SVG 1.1//EN"
  "http://www.w3.org/Graphics/SVG/1.1/DTD/svg11.dtd">
<svg xmlns:xlink="http://www.w3.org/1999/xlink" width="339.94pt" height="268.31375pt" viewBox="0 0 339.94 268.31375" xmlns="http://www.w3.org/2000/svg" version="1.1">
 <metadata>
  <rdf:RDF xmlns:dc="http://purl.org/dc/elements/1.1/" xmlns:cc="http://creativecommons.org/ns#" xmlns:rdf="http://www.w3.org/1999/02/22-rdf-syntax-ns#">
   <cc:Work>
    <dc:type rdf:resource="http://purl.org/dc/dcmitype/StillImage"/>
    <dc:date>2025-08-21T14:28:48.056510</dc:date>
    <dc:format>image/svg+xml</dc:format>
    <dc:creator>
     <cc:Agent>
      <dc:title>Matplotlib v3.10.3, https://matplotlib.org/</dc:title>
     </cc:Agent>
    </dc:creator>
   </cc:Work>
  </rdf:RDF>
 </metadata>
 <defs>
  <style type="text/css">*{stroke-linejoin: round; stroke-linecap: butt}</style>
 </defs>
 <g id="figure_1">
  <g id="patch_1">
   <path d="M 0 268.31375 
L 339.94 268.31375 
L 339.94 0 
L 0 0 
z
" style="fill: #ffffff"/>
  </g>
  <g id="axes_1">
   <g id="patch_2">
    <path d="M 54.8 241.4 
L 332.74 241.4 
L 332.74 7.2 
L 54.8 7.2 
z
" style="fill: #ffffff"/>
   </g>
   <g id="patch_3">
    <path d="M 67.433636 241.4 
L 75.856061 241.4 
L 75.856061 241.375807 
L 67.433636 241.375807 
z
" clip-path="url(#p88460de923)" style="fill: #1b485e; fill-opacity: 0.75; stroke: #122740; stroke-width: 0.845455; stroke-linejoin: miter"/>
   </g>
   <g id="patch_4">
    <path d="M 75.856061 241.4 
L 84.278485 241.4 
L 84.278485 241.4 
L 75.856061 241.4 
z
" clip-path="url(#p88460de923)" style="fill: #1b485e; fill-opacity: 0.75; stroke: #122740; stroke-width: 0.845455; stroke-linejoin: miter"/>
   </g>
   <g id="patch_5">
    <path d="M 84.278485 241.4 
L 92.700909 241.4 
L 92.700909 241.190331 
L 84.278485 241.190331 
z
" clip-path="url(#p88460de923)" style="fill: #1b485e; fill-opacity: 0.75; stroke: #122740; stroke-width: 0.845455; stroke-linejoin: miter"/>
   </g>
   <g id="patch_6">
    <path d="M 92.700909 241.4 
L 101.123333 241.4 
L 101.123333 241.4 
L 92.700909 241.4 
z
" clip-path="url(#p88460de923)" style="fill: #1b485e; fill-opacity: 0.75; stroke: #122740; stroke-width: 0.845455; stroke-linejoin: miter"/>
   </g>
   <g id="patch_7">
    <path d="M 101.123333 241.4 
L 109.545758 241.4 
L 109.545758 241.4 
L 101.123333 241.4 
z
" clip-path="url(#p88460de923)" style="fill: #1b485e; fill-opacity: 0.75; stroke: #122740; stroke-width: 0.845455; stroke-linejoin: miter"/>
   </g>
   <g id="patch_8">
    <path d="M 109.545758 241.4 
L 117.968182 241.4 
L 117.968182 238.908163 
L 109.545758 238.908163 
z
" clip-path="url(#p88460de923)" style="fill: #1b485e; fill-opacity: 0.75; stroke: #122740; stroke-width: 0.845455; stroke-linejoin: miter"/>
   </g>
   <g id="patch_9">
    <path d="M 117.968182 241.4 
L 126.390606 241.4 
L 126.390606 241.4 
L 117.968182 241.4 
z
" clip-path="url(#p88460de923)" style="fill: #1b485e; fill-opacity: 0.75; stroke: #122740; stroke-width: 0.845455; stroke-linejoin: miter"/>
   </g>
   <g id="patch_10">
    <path d="M 126.390606 241.4 
L 134.81303 241.4 
L 134.81303 226.481236 
L 126.390606 226.481236 
z
" clip-path="url(#p88460de923)" style="fill: #1b485e; fill-opacity: 0.75; stroke: #122740; stroke-width: 0.845455; stroke-linejoin: miter"/>
   </g>
   <g id="patch_11">
    <path d="M 134.81303 241.4 
L 143.235455 241.4 
L 143.235455 241.4 
L 134.81303 241.4 
z
" clip-path="url(#p88460de923)" style="fill: #1b485e; fill-opacity: 0.75; stroke: #122740; stroke-width: 0.845455; stroke-linejoin: miter"/>
   </g>
   <g id="patch_12">
    <path d="M 143.235455 241.4 
L 151.657879 241.4 
L 151.657879 241.4 
L 143.235455 241.4 
z
" clip-path="url(#p88460de923)" style="fill: #1b485e; fill-opacity: 0.75; stroke: #122740; stroke-width: 0.845455; stroke-linejoin: miter"/>
   </g>
   <g id="patch_13">
    <path d="M 151.657879 241.4 
L 160.080303 241.4 
L 160.080303 183.426489 
L 151.657879 183.426489 
z
" clip-path="url(#p88460de923)" style="fill: #1b485e; fill-opacity: 0.75; stroke: #122740; stroke-width: 0.845455; stroke-linejoin: miter"/>
   </g>
   <g id="patch_14">
    <path d="M 160.080303 241.4 
L 168.502727 241.4 
L 168.502727 241.4 
L 160.080303 241.4 
z
" clip-path="url(#p88460de923)" style="fill: #1b485e; fill-opacity: 0.75; stroke: #122740; stroke-width: 0.845455; stroke-linejoin: miter"/>
   </g>
   <g id="patch_15">
    <path d="M 168.502727 241.4 
L 176.925152 241.4 
L 176.925152 98.397598 
L 168.502727 98.397598 
z
" clip-path="url(#p88460de923)" style="fill: #1b485e; fill-opacity: 0.75; stroke: #122740; stroke-width: 0.845455; stroke-linejoin: miter"/>
   </g>
   <g id="patch_16">
    <path d="M 176.925152 241.4 
L 185.347576 241.4 
L 185.347576 241.4 
L 176.925152 241.4 
z
" clip-path="url(#p88460de923)" style="fill: #1b485e; fill-opacity: 0.75; stroke: #122740; stroke-width: 0.845455; stroke-linejoin: miter"/>
   </g>
   <g id="patch_17">
    <path d="M 185.347576 241.4 
L 193.77 241.4 
L 193.77 241.4 
L 185.347576 241.4 
z
" clip-path="url(#p88460de923)" style="fill: #1b485e; fill-opacity: 0.75; stroke: #122740; stroke-width: 0.845455; stroke-linejoin: miter"/>
   </g>
   <g id="patch_18">
    <path d="M 193.77 241.4 
L 202.192424 241.4 
L 202.192424 18.352381 
L 193.77 18.352381 
z
" clip-path="url(#p88460de923)" style="fill: #1b485e; fill-opacity: 0.75; stroke: #122740; stroke-width: 0.845455; stroke-linejoin: miter"/>
   </g>
   <g id="patch_19">
    <path d="M 202.192424 241.4 
L 210.614848 241.4 
L 210.614848 241.4 
L 202.192424 241.4 
z
" clip-path="url(#p88460de923)" style="fill: #1b485e; fill-opacity: 0.75; stroke: #122740; stroke-width: 0.845455; stroke-linejoin: miter"/>
   </g>
   <g id="patch_20">
    <path d="M 210.614848 241.4 
L 219.037273 241.4 
L 219.037273 100.357198 
L 210.614848 100.357198 
z
" clip-path="url(#p88460de923)" style="fill: #1b485e; fill-opacity: 0.75; stroke: #122740; stroke-width: 0.845455; stroke-linejoin: miter"/>
   </g>
   <g id="patch_21">
    <path d="M 219.037273 241.4 
L 227.459697 241.4 
L 227.459697 241.4 
L 219.037273 241.4 
z
" clip-path="url(#p88460de923)" style="fill: #1b485e; fill-opacity: 0.75; stroke: #122740; stroke-width: 0.845455; stroke-linejoin: miter"/>
   </g>
   <g id="patch_22">
    <path d="M 227.459697 241.4 
L 235.882121 241.4 
L 235.882121 241.4 
L 227.459697 241.4 
z
" clip-path="url(#p88460de923)" style="fill: #1b485e; fill-opacity: 0.75; stroke: #122740; stroke-width: 0.845455; stroke-linejoin: miter"/>
   </g>
   <g id="patch_23">
    <path d="M 235.882121 241.4 
L 244.304545 241.4 
L 244.304545 188.611768 
L 235.882121 188.611768 
z
" clip-path="url(#p88460de923)" style="fill: #1b485e; fill-opacity: 0.75; stroke: #122740; stroke-width: 0.845455; stroke-linejoin: miter"/>
   </g>
   <g id="patch_24">
    <path d="M 244.304545 241.4 
L 252.72697 241.4 
L 252.72697 241.4 
L 244.304545 241.4 
z
" clip-path="url(#p88460de923)" style="fill: #1b485e; fill-opacity: 0.75; stroke: #122740; stroke-width: 0.845455; stroke-linejoin: miter"/>
   </g>
   <g id="patch_25">
    <path d="M 252.72697 241.4 
L 261.149394 241.4 
L 261.149394 227.739251 
L 252.72697 227.739251 
z
" clip-path="url(#p88460de923)" style="fill: #1b485e; fill-opacity: 0.75; stroke: #122740; stroke-width: 0.845455; stroke-linejoin: miter"/>
   </g>
   <g id="patch_26">
    <path d="M 261.149394 241.4 
L 269.571818 241.4 
L 269.571818 241.4 
L 261.149394 241.4 
z
" clip-path="url(#p88460de923)" style="fill: #1b485e; fill-opacity: 0.75; stroke: #122740; stroke-width: 0.845455; stroke-linejoin: miter"/>
   </g>
   <g id="patch_27">
    <path d="M 269.571818 241.4 
L 277.994242 241.4 
L 277.994242 241.4 
L 269.571818 241.4 
z
" clip-path="url(#p88460de923)" style="fill: #1b485e; fill-opacity: 0.75; stroke: #122740; stroke-width: 0.845455; stroke-linejoin: miter"/>
   </g>
   <g id="patch_28">
    <path d="M 277.994242 241.4 
L 286.416667 241.4 
L 286.416667 238.795264 
L 277.994242 238.795264 
z
" clip-path="url(#p88460de923)" style="fill: #1b485e; fill-opacity: 0.75; stroke: #122740; stroke-width: 0.845455; stroke-linejoin: miter"/>
   </g>
   <g id="patch_29">
    <path d="M 286.416667 241.4 
L 294.839091 241.4 
L 294.839091 241.4 
L 286.416667 241.4 
z
" clip-path="url(#p88460de923)" style="fill: #1b485e; fill-opacity: 0.75; stroke: #122740; stroke-width: 0.845455; stroke-linejoin: miter"/>
   </g>
   <g id="patch_30">
    <path d="M 294.839091 241.4 
L 303.261515 241.4 
L 303.261515 241.029047 
L 294.839091 241.029047 
z
" clip-path="url(#p88460de923)" style="fill: #1b485e; fill-opacity: 0.75; stroke: #122740; stroke-width: 0.845455; stroke-linejoin: miter"/>
   </g>
   <g id="patch_31">
    <path d="M 303.261515 241.4 
L 311.683939 241.4 
L 311.683939 241.4 
L 303.261515 241.4 
z
" clip-path="url(#p88460de923)" style="fill: #1b485e; fill-opacity: 0.75; stroke: #122740; stroke-width: 0.845455; stroke-linejoin: miter"/>
   </g>
   <g id="patch_32">
    <path d="M 311.683939 241.4 
L 320.106364 241.4 
L 320.106364 241.383872 
L 311.683939 241.383872 
z
" clip-path="url(#p88460de923)" style="fill: #1b485e; fill-opacity: 0.75; stroke: #122740; stroke-width: 0.845455; stroke-linejoin: miter"/>
   </g>
   <g id="matplotlib.axis_1">
    <g id="xtick_1">
     <g id="line2d_1">
      <defs>
       <path id="mb6349d583f" d="M 0 0 
L 0 3.5 
" style="stroke: #3f3f3f; stroke-width: 0.8"/>
      </defs>
      <g>
       <use xlink:href="#mb6349d583f" x="88.489697" y="241.4" style="fill: #3f3f3f; stroke: #3f3f3f; stroke-width: 0.8"/>
      </g>
     </g>
     <g id="text_1">
      <!-- −5.0 -->
      <g style="fill: #3f3f3f" transform="translate(74.658134 258.711875) scale(0.14 -0.14)">
       <defs>
        <path id="Lato-Regular-2212" d="M 480 2365 
L 3232 2365 
L 3232 1933 
L 480 1933 
L 480 2365 
z
" transform="scale(0.015625)"/>
        <path id="Lato-Regular-35" d="M 3142 4336 
Q 3142 4214 3067 4136 
Q 2992 4058 2810 4058 
L 1370 4058 
L 1158 2854 
Q 1341 2896 1502 2913 
Q 1664 2931 1818 2931 
Q 2176 2931 2451 2825 
Q 2726 2720 2910 2534 
Q 3094 2349 3188 2096 
Q 3283 1843 3283 1546 
Q 3283 1181 3156 886 
Q 3030 592 2808 382 
Q 2586 173 2285 61 
Q 1984 -51 1635 -51 
Q 1434 -51 1248 -11 
Q 1062 29 900 96 
Q 739 163 601 249 
Q 464 336 358 432 
L 534 675 
Q 592 758 685 758 
Q 749 758 829 708 
Q 909 659 1024 598 
Q 1139 538 1294 488 
Q 1450 438 1664 438 
Q 1904 438 2096 515 
Q 2288 592 2425 734 
Q 2563 877 2636 1075 
Q 2710 1274 2710 1520 
Q 2710 1734 2648 1907 
Q 2586 2080 2459 2201 
Q 2333 2323 2144 2390 
Q 1955 2458 1702 2458 
Q 1530 2458 1342 2429 
Q 1155 2400 960 2336 
L 602 2442 
L 970 4586 
L 3142 4586 
L 3142 4336 
z
" transform="scale(0.015625)"/>
        <path id="Lato-Regular-2e" d="M 355 352 
Q 355 435 385 508 
Q 416 582 469 636 
Q 522 691 595 723 
Q 669 755 752 755 
Q 835 755 908 723 
Q 982 691 1036 636 
Q 1091 582 1123 508 
Q 1155 435 1155 352 
Q 1155 266 1123 194 
Q 1091 122 1036 67 
Q 982 13 908 -17 
Q 835 -48 752 -48 
Q 669 -48 595 -17 
Q 522 13 469 67 
Q 416 122 385 194 
Q 355 266 355 352 
z
" transform="scale(0.015625)"/>
        <path id="Lato-Regular-30" d="M 3520 2291 
Q 3520 1690 3390 1250 
Q 3261 810 3037 522 
Q 2813 234 2507 93 
Q 2202 -48 1853 -48 
Q 1501 -48 1198 93 
Q 896 234 672 522 
Q 448 810 320 1250 
Q 192 1690 192 2291 
Q 192 2893 320 3334 
Q 448 3776 672 4065 
Q 896 4355 1198 4496 
Q 1501 4637 1853 4637 
Q 2202 4637 2507 4496 
Q 2813 4355 3037 4065 
Q 3261 3776 3390 3334 
Q 3520 2893 3520 2291 
z
M 2928 2291 
Q 2928 2816 2840 3173 
Q 2752 3530 2603 3747 
Q 2454 3965 2259 4059 
Q 2064 4154 1853 4154 
Q 1642 4154 1446 4059 
Q 1251 3965 1104 3747 
Q 957 3530 869 3173 
Q 781 2816 781 2291 
Q 781 1766 869 1411 
Q 957 1056 1104 838 
Q 1251 621 1446 526 
Q 1642 432 1853 432 
Q 2064 432 2259 526 
Q 2454 621 2603 838 
Q 2752 1056 2840 1411 
Q 2928 1766 2928 2291 
z
" transform="scale(0.015625)"/>
       </defs>
       <use xlink:href="#Lato-Regular-2212"/>
       <use xlink:href="#Lato-Regular-35" transform="translate(58 0)"/>
       <use xlink:href="#Lato-Regular-2e" transform="translate(116 0)"/>
       <use xlink:href="#Lato-Regular-30" transform="translate(139.600006 0)"/>
      </g>
     </g>
    </g>
    <g id="xtick_2">
     <g id="line2d_2">
      <g>
       <use xlink:href="#mb6349d583f" x="141.129848" y="241.4" style="fill: #3f3f3f; stroke: #3f3f3f; stroke-width: 0.8"/>
      </g>
     </g>
     <g id="text_2">
      <!-- −2.5 -->
      <g style="fill: #3f3f3f" transform="translate(127.298286 258.711875) scale(0.14 -0.14)">
       <defs>
        <path id="Lato-Regular-32" d="M 1891 4637 
Q 2182 4637 2435 4550 
Q 2688 4464 2873 4299 
Q 3059 4134 3164 3897 
Q 3270 3661 3270 3360 
Q 3270 3104 3193 2885 
Q 3117 2666 2985 2467 
Q 2854 2269 2683 2080 
Q 2512 1891 2320 1699 
L 1110 464 
Q 1238 499 1369 520 
Q 1501 541 1622 541 
L 3158 541 
Q 3251 541 3305 486 
Q 3360 432 3360 346 
L 3360 0 
L 301 0 
L 301 195 
Q 301 256 326 320 
Q 352 384 406 438 
L 1875 1914 
Q 2058 2099 2208 2270 
Q 2358 2442 2464 2614 
Q 2570 2787 2627 2964 
Q 2685 3142 2685 3344 
Q 2685 3546 2621 3698 
Q 2557 3850 2446 3949 
Q 2336 4048 2185 4097 
Q 2035 4147 1862 4147 
Q 1686 4147 1539 4096 
Q 1392 4045 1278 3953 
Q 1165 3862 1088 3737 
Q 1011 3613 979 3462 
Q 941 3350 875 3313 
Q 810 3277 691 3293 
L 394 3344 
Q 438 3658 568 3899 
Q 698 4141 894 4304 
Q 1091 4467 1344 4552 
Q 1597 4637 1891 4637 
z
" transform="scale(0.015625)"/>
       </defs>
       <use xlink:href="#Lato-Regular-2212"/>
       <use xlink:href="#Lato-Regular-32" transform="translate(58 0)"/>
       <use xlink:href="#Lato-Regular-2e" transform="translate(116 0)"/>
       <use xlink:href="#Lato-Regular-35" transform="translate(139.600006 0)"/>
      </g>
     </g>
    </g>
    <g id="xtick_3">
     <g id="line2d_3">
      <g>
       <use xlink:href="#mb6349d583f" x="193.77" y="241.4" style="fill: #3f3f3f; stroke: #3f3f3f; stroke-width: 0.8"/>
      </g>
     </g>
     <g id="text_3">
      <!-- 0.0 -->
      <g style="fill: #3f3f3f" transform="translate(183.998437 258.711875) scale(0.14 -0.14)">
       <use xlink:href="#Lato-Regular-30"/>
       <use xlink:href="#Lato-Regular-2e" transform="translate(58 0)"/>
       <use xlink:href="#Lato-Regular-30" transform="translate(81.600006 0)"/>
      </g>
     </g>
    </g>
    <g id="xtick_4">
     <g id="line2d_4">
      <g>
       <use xlink:href="#mb6349d583f" x="246.410152" y="241.4" style="fill: #3f3f3f; stroke: #3f3f3f; stroke-width: 0.8"/>
      </g>
     </g>
     <g id="text_4">
      <!-- 2.5 -->
      <g style="fill: #3f3f3f" transform="translate(236.638589 258.711875) scale(0.14 -0.14)">
       <use xlink:href="#Lato-Regular-32"/>
       <use xlink:href="#Lato-Regular-2e" transform="translate(58 0)"/>
       <use xlink:href="#Lato-Regular-35" transform="translate(81.600006 0)"/>
      </g>
     </g>
    </g>
    <g id="xtick_5">
     <g id="line2d_5">
      <g>
       <use xlink:href="#mb6349d583f" x="299.050303" y="241.4" style="fill: #3f3f3f; stroke: #3f3f3f; stroke-width: 0.8"/>
      </g>
     </g>
     <g id="text_5">
      <!-- 5.0 -->
      <g style="fill: #3f3f3f" transform="translate(289.278741 258.711875) scale(0.14 -0.14)">
       <use xlink:href="#Lato-Regular-35"/>
       <use xlink:href="#Lato-Regular-2e" transform="translate(58 0)"/>
       <use xlink:href="#Lato-Regular-30" transform="translate(81.600006 0)"/>
      </g>
     </g>
    </g>
   </g>
   <g id="matplotlib.axis_2">
    <g id="ytick_1">
     <g id="line2d_6">
      <defs>
       <path id="m386f457d44" d="M 0 0 
L -3.5 0 
" style="stroke: #3f3f3f; stroke-width: 0.8"/>
      </defs>
      <g>
       <use xlink:href="#m386f457d44" x="54.8" y="241.4" style="fill: #3f3f3f; stroke: #3f3f3f; stroke-width: 0.8"/>
      </g>
     </g>
     <g id="text_6">
      <!-- 0 -->
      <g style="fill: #3f3f3f" transform="translate(39.68 246.555937) scale(0.14 -0.14)">
       <use xlink:href="#Lato-Regular-30"/>
      </g>
     </g>
    </g>
    <g id="ytick_2">
     <g id="line2d_7">
      <g>
       <use xlink:href="#m386f457d44" x="54.8" y="201.079016" style="fill: #3f3f3f; stroke: #3f3f3f; stroke-width: 0.8"/>
      </g>
     </g>
     <g id="text_7">
      <!-- 5000 -->
      <g style="fill: #3f3f3f" transform="translate(15.32 206.234954) scale(0.14 -0.14)">
       <use xlink:href="#Lato-Regular-35"/>
       <use xlink:href="#Lato-Regular-30" transform="translate(58 0)"/>
       <use xlink:href="#Lato-Regular-30" transform="translate(116 0)"/>
       <use xlink:href="#Lato-Regular-30" transform="translate(174 0)"/>
      </g>
     </g>
    </g>
    <g id="ytick_3">
     <g id="line2d_8">
      <g>
       <use xlink:href="#m386f457d44" x="54.8" y="160.758032" style="fill: #3f3f3f; stroke: #3f3f3f; stroke-width: 0.8"/>
      </g>
     </g>
     <g id="text_8">
      <!-- 10000 -->
      <g style="fill: #3f3f3f" transform="translate(7.2 165.91397) scale(0.14 -0.14)">
       <defs>
        <path id="Lato-Regular-31" d="M 800 435 
L 1782 435 
L 1782 3562 
Q 1782 3696 1792 3846 
L 976 3146 
Q 934 3110 892 3102 
Q 851 3094 816 3100 
Q 781 3107 750 3126 
Q 720 3146 704 3168 
L 525 3414 
L 1891 4595 
L 2355 4595 
L 2355 435 
L 3258 435 
L 3258 0 
L 800 0 
L 800 435 
z
" transform="scale(0.015625)"/>
       </defs>
       <use xlink:href="#Lato-Regular-31"/>
       <use xlink:href="#Lato-Regular-30" transform="translate(58 0)"/>
       <use xlink:href="#Lato-Regular-30" transform="translate(116 0)"/>
       <use xlink:href="#Lato-Regular-30" transform="translate(174 0)"/>
       <use xlink:href="#Lato-Regular-30" transform="translate(232 0)"/>
      </g>
     </g>
    </g>
    <g id="ytick_4">
     <g id="line2d_9">
      <g>
       <use xlink:href="#m386f457d44" x="54.8" y="120.437048" style="fill: #3f3f3f; stroke: #3f3f3f; stroke-width: 0.8"/>
      </g>
     </g>
     <g id="text_9">
      <!-- 15000 -->
      <g style="fill: #3f3f3f" transform="translate(7.2 125.592986) scale(0.14 -0.14)">
       <use xlink:href="#Lato-Regular-31"/>
       <use xlink:href="#Lato-Regular-35" transform="translate(58 0)"/>
       <use xlink:href="#Lato-Regular-30" transform="translate(116 0)"/>
       <use xlink:href="#Lato-Regular-30" transform="translate(174 0)"/>
       <use xlink:href="#Lato-Regular-30" transform="translate(232 0)"/>
      </g>
     </g>
    </g>
    <g id="ytick_5">
     <g id="line2d_10">
      <g>
       <use xlink:href="#m386f457d44" x="54.8" y="80.116064" style="fill: #3f3f3f; stroke: #3f3f3f; stroke-width: 0.8"/>
      </g>
     </g>
     <g id="text_10">
      <!-- 20000 -->
      <g style="fill: #3f3f3f" transform="translate(7.2 85.272002) scale(0.14 -0.14)">
       <use xlink:href="#Lato-Regular-32"/>
       <use xlink:href="#Lato-Regular-30" transform="translate(58 0)"/>
       <use xlink:href="#Lato-Regular-30" transform="translate(116 0)"/>
       <use xlink:href="#Lato-Regular-30" transform="translate(174 0)"/>
       <use xlink:href="#Lato-Regular-30" transform="translate(232 0)"/>
      </g>
     </g>
    </g>
    <g id="ytick_6">
     <g id="line2d_11">
      <g>
       <use xlink:href="#m386f457d44" x="54.8" y="39.79508" style="fill: #3f3f3f; stroke: #3f3f3f; stroke-width: 0.8"/>
      </g>
     </g>
     <g id="text_11">
      <!-- 25000 -->
      <g style="fill: #3f3f3f" transform="translate(7.2 44.951018) scale(0.14 -0.14)">
       <use xlink:href="#Lato-Regular-32"/>
       <use xlink:href="#Lato-Regular-35" transform="translate(58 0)"/>
       <use xlink:href="#Lato-Regular-30" transform="translate(116 0)"/>
       <use xlink:href="#Lato-Regular-30" transform="translate(174 0)"/>
       <use xlink:href="#Lato-Regular-30" transform="translate(232 0)"/>
      </g>
     </g>
    </g>
   </g>
   <g id="patch_33">
    <path d="M 54.8 241.4 
L 54.8 7.2 
" style="fill: none; stroke: #000000; stroke-width: 0.8; stroke-linejoin: miter; stroke-linecap: square"/>
   </g>
   <g id="patch_34">
    <path d="M 54.8 241.4 
L 332.74 241.4 
" style="fill: none; stroke: #000000; stroke-width: 0.8; stroke-linejoin: miter; stroke-linecap: square"/>
   </g>
  </g>
 </g>
 <defs>
  <clipPath id="p88460de923">
   <rect x="54.8" y="7.2" width="277.94" height="234.2"/>
  </clipPath>
 </defs>
</svg>
